<svg version="1.1" id="Layer_1" xmlns="http://www.w3.org/2000/svg" xmlns:xlink="http://www.w3.org/1999/xlink" x="0px" y="0px"
								 viewBox="0 0 300 400" style="enable-background:new 0 0 300 400;" xml:space="preserve">
							<style type="text/css">
							.seat .st0{fill:#F76400;stroke:#FFFFFF;stroke-width:0.75;stroke-miterlimit:10;}
							.seat .st1{opacity:0.5;}
							.seat .st2{fill:#FFFFFF;}
							.seat .st4{font-size:9.0441px;}
							.seat .st5{fill:#18BBC5;} 
							.seat .st7{fill:#FFA667;stroke:#FFFFFF;stroke-width:0.75;stroke-miterlimit:10;}
							</style>
							<g id="rangpur-2">
								<g id="dist-taraganj">
									<polygon class="st0" points="21.1,144.2 25.7,144.8 25.9,141.5 26.9,139.9 26.7,138.5 30.3,136.4 32.3,137 33.5,133.9 36.3,132.7 
										38.3,136.8 39.5,140.1 43.1,139.5 46.6,141.2 47.3,143.6 47.3,147.3 51,147.3 51.7,146.5 50.5,144.8 54.1,143.1 57.8,142.9 
										61.9,143.2 62.9,148.4 65.6,151.6 69.1,151.1 66.9,146.9 66.2,145.2 67.9,144.9 70.8,145.9 71.7,144.6 73.8,145 73.4,142.1 
										76.5,140.8 79.8,144 82.2,147 84.7,148.6 87.8,146.2 86.4,142.9 85.7,140.9 84.9,138.8 88.3,137.5 90,138.1 91.5,137.3 90,133.6 
										85.2,132.4 86,128.9 89.1,126.9 88.4,124.6 85.4,123.8 88.1,120.5 89.7,121.7 92.1,119.5 90.5,117.7 91.5,108.9 90.5,105.4 
										90.4,102.8 84,98.7 83.6,99.4 80.1,99.3 79.6,96.7 76.4,95.5 75.1,95.9 71.4,95.2 69.7,96.6 67.7,97 68.2,99.1 65.2,103.7 
										63.5,106.4 61.6,106.1 62.2,104.2 59.9,104.4 59.1,103.5 50,104.4 49.6,103.7 44.1,105.5 44.4,106.7 41.2,107.5 39.8,106.7 
										36.3,109.2 33.3,109.1 30.5,109.3 27.5,107.1 23,107.2 22.5,108.4 21.3,109.1 20.3,108.4 17.2,110.9 16.7,113 17.7,114.2 
										21.1,112.2 21.3,115.6 22.5,117.3 22.7,118.1 21.3,119.8 21.6,121.4 24.4,122 24.1,124.1 23.1,125.4 18.9,125.2 17.6,128.9 
										16.9,134.6 16.6,138 19.7,138 21,139.9 		"/>
									<g class="st1">
										<text transform="matrix(1 0 0 1 42.9509 130.7012)" class="st2 st3 st4">TARAGANJ</text>
									</g>
								</g>
								<g id="dist-badarganj">
									<polygon class="st0" points="21.1,144 19.1,144.9 16.5,143.1 14.8,143.6 13.1,147.3 14.2,148.2 12.3,151.3 8.4,151.4 7.4,153.1 
										7,157.2 9.4,162.9 12.5,167.8 11.1,170.7 13.8,172.8 14.9,172.5 16.2,175.5 20,174.8 19.4,173.1 22.4,172.2 23.4,174.9 
										22.7,177.1 23.7,178.6 27.1,178.6 27.9,181 26.7,183.6 28.1,186.5 31.8,186.7 31.6,185 32.7,184.8 36.6,185.3 39,186.7 
										37.4,189.4 35,192.4 35.9,196.2 39.7,199 39.8,201.1 36.6,201.3 37.7,204.7 36.7,206.7 39.5,208.2 39.5,206.7 41.7,207.8 
										42.7,206.5 45.6,215.7 49.7,215.7 51.3,213.9 52.7,214.2 53,216 54.8,215.9 55.6,214.9 58.5,217.3 59.2,224.2 60.5,225.5 
										63.5,223.8 68,222.8 74.1,224.2 76.1,224.8 76.4,227.8 83.6,233.3 85.2,233.3 86.9,232.6 87.1,235.3 84.6,240.8 82.2,242.8 
										82.9,246.5 85.7,246.9 85.3,250 87.3,251 90.3,247 92.8,241.1 95.9,240.7 98.9,234.8 104.6,232 106.5,229 105.7,224.8 107,224.5 
										105.1,221.2 104.8,218.3 103.1,210.3 106.3,207.2 107,203.7 103.7,204.4 100,202.1 102.6,192.4 104.1,188.8 104.7,186 
										107.1,184.1 112.8,184.1 114.1,170.5 110.2,168.1 110.2,162.3 108.5,161 107.3,161.9 105.1,159.3 106.3,155.2 102.3,155 102,153 
										91.1,151.3 90.8,154.4 89,155.5 87.6,155.4 86.3,157.1 84.2,156.4 83,157.4 80.1,156.1 79.3,153.3 81.6,152.5 82.2,150.3 
										84.6,148.4 82,146.9 79.6,143.9 76.7,140.9 73.5,141.9 73.8,144.9 71.7,144.6 70.7,145.9 67.9,144.9 66.3,145.2 69,151.3 
										65.6,151.7 62.9,148.4 61.8,143.2 58,142.9 54.3,143.1 50.6,144.6 51.7,146.5 51,147.3 47.3,147.3 47.3,143.8 46.6,141.2 
										43.1,139.7 39.5,140.1 38.3,136.7 36.1,132.9 33.5,133.9 32.3,136.8 30.5,136.4 26.7,138.5 26.9,139.8 25.9,141.5 25.5,144.8 		
										"/>
									<path class="st5" d="M66,181.3c-0.1,0-0.2,0-0.3-0.1C65.8,181.3,65.9,181.3,66,181.3c0.1,0,0.3-0.1,0.2-0.2
										C66.2,181.2,66.1,181.3,66,181.3z"/>
									<g class="st1">
										<text transform="matrix(1 0 0 1 52.5075 184.3057)" class="st2 st3 st4">BADARGANJ</text>
									</g>
									<circle class="st2" cx="74.6" cy="155.2" r="6.9"/>
									<g>
										<text transform="matrix(1 0 0 1 22.9328 159.752)" class="st3 st6">RANGPUR   2</text>
									</g>
								</g>
							</g>
							<g id="rangpur-3">
								<path class="st7" d="M79.3,153.1l2.3-0.6l0.6-2.1l2.5-1.8l3.1-2.5l-3-7.2l3.4-1.3l1.6,0.6l1.6-1l-1.6-3.4l-4.5-1.3l0.7-3.8l3.3-1.8
									l-1-2.3l-2.8-1l2.5-3l1.4,1.3l2.5-2.4l-1.6-1.8l1.1-8.5l3,3.3h2.5v-1.6l5.4-1.6l0.3-2.8l3.7-2.4l3.7-0.3l0.4,2.8l3-0.3l-0.1-2.3
									l3.7-0.4l4,2.4l2.7-1l0.1,2.8l7.2-0.1l2.1-1.7l0.3-1.4l-3.1-0.3l-0.6-3.8l3.1-4l5.2-0.1l2,2.4l-1.6,2.5l0.3,2l6.2,1l7.2,0.3
									l4.7-3.7l2.7,1.4l-0.1,3.3l4.2,2.1l2-0.7l-0.1-1.7l2.4,0.1l1.3-2.3l2.3-0.1l3.7,3.5l1.6-2l3.3-0.1l2.8,2.7l0.4,2.4l3.1,0.1l2.5-1.6
									l0.1,1.4l-1.3,3l0.8,0.6l-0.3,1.4l-3.4,1.1l0.4,4.5l-6.4,21.1l0.4,1.4l1.1-0.3l1.4,2l-1.6,3.4l-0.7,1.6l4.1,1.8l1.6,3.5l2.3,0.8
									l0.7,2.7l1.6,0.4h1.7l1.4,2.1l-2.3,1.7l-1.7-0.1l0.1,2.3l-1,1l-1-1l-4.1,3.5l3.3,5.5l1.4-1l2,2.3l-2.1,2.8l1.4,0.8l-0.3,2.3
									l-2.1-1.1l-0.4,1l-0.3,1.7l-2.3,1.1H181l-2-3l-1.4,1.3l-2.1-0.8l1.3-1.8l-1-1.3l-1.4,0.4l-0.1-0.8v-1.1l-4.5-1.7l-1.1,2.3l-5-0.1
									c0,0-3.1,1.7-3.1,1.8c0,0.1,0,3.7,0,3.7l-4-0.4l-3.8,0.8l-0.6-2.1l0.8-1.1l-1.3-1.7l-3.3,2l-0.6,4l-1.8-0.4l-3.3,0.8l-1.6,3l-2,1.3
									l-5,0.1l-2.5,1l-2.5-0.6L124,190l-1.1-1l-1.3-2l-5-1.6l-0.8-2.4l-2.8-0.8l1.2-11.7l-4-2.4v-5.8l-1.6-1.3l-1.1,0.8l-2.4-2.5l1.1-4
									l-4-0.4l-0.3-2l-10.8-1.7l-0.4,3.1l-1.7,1.1l-1.6-0.3l-1.1,1.7l-2.1-0.7l-1.3,1.1l-2.8-1.3L79.3,153.1z"/>
								<g class="st1">
									<text transform="matrix(1 0 0 1 112.7624 127.2656)" class="st2 st3 st4">RANGPUR-S</text>
								</g>
								<g class="st1">
									<text transform="matrix(1 0 0 1 142.6813 166.1021)" class="st2 st3 st4">RANGPUR</text>
								</g>
								<circle class="st2" cx="159.3" cy="144.6" r="6.9"/>
								<g>
									<text transform="matrix(1 0 0 1 107.648 149.1626)" class="st3 st6">RANGPUR   3</text>
								</g>
							</g>
							<g id="rangpur-5">
								<path class="st7" d="M107.3,304.1l-1.1-1l-2.5-2.1v-1.1l-2.1,0.1l-1.1-1.1l2.3-2l-0.3-1.8h-3.8l-2.1-2.4l-3-1l-0.3-1.7l2.5-1
									l2.7-0.3l2.1-0.1v-1.4h-3.1l-1.7-0.3l1.6-2.3l0.1-1.8h-1.8l-1.1,3.5l-1.4,1.3l-0.6-1l0.7-1.8l-0.6-1.7l-1.4-0.3l-1.6,0.3l-1.4-2.3
									l0.6-1.6l2-0.1l1.1-3l-3-0.8l-1.1-5.4l1.3-2.8l2.7-1.1l-2-2.1l1-0.8l1.7,1.1l0.6-1l-1.1-1.8l-3.3,0.3l-0.3-3l-0.4-3.1l0.8-1.4
									l-1.4-1.4l0.1-2l2.8-3.5l2.7-6.1l3-0.3l3-5.9l5.8-2.8l2-2.8l-0.8-4.1l1-0.6l-1.7-3.1l-2-10.9l3.1-3.3l0.7-3.4l-3.3,0.8l-3.8-2.4
									l2.7-9.8l1.6-3.5l0.6-2.8l2.4-1.7l5.5-0.3l0.6-1.7l2.4,0.6l1.3,2.5l4.8,1.6l1.1,1.7l1.1,1.1l5.2-1l2.4,0.6l2.8-1l4.7-0.1l2.3-1.3
									l1.4-3l3.1-0.8l2,0.4l0.7-4.1l3.1-1.8l1.3,1.7l-0.8,1.3l0.8,2.1l4.1-0.8l3.7,0.4v-4.2l3.1-1.7l5,0.1l1.1-2.3l4.5,1.6v2l1.6-0.1
									l0.8,1.1l-1,1.8l1.8,0.8l1.6-1.4l2,3l2.4,0.1l2.3-1.1l0.7-2.7l2,1v1.1l0.7,1.7l-0.4,2.1l2.1,1.6l3.5,0.6l1.8-0.3l0.8-1.3l-0.7-2.3
									l1.4-0.8l0.8,0.1l0.1,2.3l1.1,1.3l1.4,0.4l-0.1,2.7h1.1l0.8-1.7l0.6-0.8l-0.4-2l1.1-0.6l1,2.3l1,0.1l0.1,0.7l-1.4,1.8l0.1,1.6
									l1.6-0.4l1.3,0.6l-1.3,1.7l1.8,1.8l-0.1,1l-1.7,0.8v0.8l2.5,2h1.4l0.6-0.7v-1.1l1.3,0.8l1.7-0.3l2.5-1.6l1.3,0.4l0.3,3.1l-1.8,1.1
									l-1.3,0.7l-0.3,1.4l0.8,0.7l2-1.1l1.4,0.4l1.3,1.1l0.1,0.6l1.8-0.7l0.6,1l-2.4,1.3v1.7l1.8,1.1l1.4,2.8l-0.3,1l-3-0.8l-1.5,0
									l-0.3,0.8l1.3,1.1l1.7-0.1l0.7,0.8l-2,1.1v1.3l2-0.3l3.3,0.8l0.4,1l-0.6,1.1l-3.8-1l-1.4-0.1l-1.6,1.6l-0.1,1.3l3.1,1l0.8,1.6
									l-0.1,0.7l-2.1,0.1l-0.7,0.6l0.7,2l-2.7,2l-1.1-0.8l-0.6,0.7l1,2h4.8l0.4,0.8l-0.4,0.7l-1.6,0.1l-0.4,1.8v1.6l1.8,2.4l0.3,0.8
									l-0.8,0.7l0.6,1l2.3-0.7l0.6,2h2.3l1.8-1.6h1l-0.3,1l-1.3,1.4l0.6,0.8l2-1.3c0,0,1.3-0.8,1.6-0.8s1.1,0.8,1.1,1c0,0.1,0,1,0,1
									l-2.5,0.7l-1.8,0.1c0,0-0.3,1-0.1,1.1c0.1,0.1,1,1.1,1.1,1.1s1.7,0.4,1.7,0.4h1.3l0.8,0.7c0,0-0.3,0.8-0.4,0.8s-1.7-0.1-1.7-0.1
									l-1,1.3l-0.8,1.1l-0.6-0.4v-1.4l-0.8-0.4l-0.6,0.4l0.3,2.3l1.3,1h0.7l2.1-2.4l1,0.3l1.4,1.1l-0.6,1.6l0.6,0.8l1-0.1l0.3-2l1.7-1.6
									l2.1-0.8l0.6,0.1l-0.4,3.4l1.6-0.1l1.7-3.3l1.7-0.3l0.7,1l-0.4,3.3l0.3,0.7l1.4-0.7l1.1-1l0.6,0.8c0,0-1.3,2.3-1.3,2.4
									s-0.8,0.8-0.8,0.8l-2.1-1.1l-1,0.3v2l0.6,1.1l1.8-0.6l0.3,1.8c0,0,0.8-0.3,0.8-0.4s0-1.8,0-1.8l1.1-0.1v1.7l1.1-0.6
									c0,0,0.6,0.4,0.7,0.6c0.1,0.1-0.3,0.8-0.3,0.8l-1.1,0.1l-1.1,1.4l-0.7,0.4l-1.4,0.1l-0.6,1.1l0.8,1.1l0.1,1l0.7,1v1.1l-1.6,2l1.1,2
									l0.4,1.6l-0.1,0.7l-1.4,2l-2-0.6l-0.7,0.4l-0.4,2.5v2l-0.7,2.3l-1.1,0.1l-1.7-1.3l-1.1,0.1l-0.1,1.8v1.1h-1.3l-1.1,1.3v1.3
									c0,0-0.4,0.3-0.6,0.4c-0.1,0.1-1.8,0.6-1.8,0.6l-1.4-0.8l-1.3-0.8l1.3-2.7l-1.8-2.1l-0.1-2l1.8-3l-0.7-1.1l-4.1,0.1l-2.5-1.4
									l-3.3-3l-0.3-2.4l-3.5-2l-0.7,1.6l-3.4,0.4l-5.7-0.6l-3.1-1l-3.8,1h-3.1l1.1-2.7l-1.4-1l-5.1,2l-2.7,0.4l-0.7-2.5l2.3-1.6l0.1-1.3
									l-6.9-2.1l-3.3,0.7v3.3l-1.7,0.7l-1-1.4l-3.5-3.5l-2.8,0.6l-2.4-3l-2.4,2.2l0.4,1.8l-0.3,1.4l-3.7-1.3l0.4-2.3l-2.5-1l-2.1,0.1
									l-2.8-2.1l-2.7,1.8l-0.1,4.4l-2.5,0.7l-0.8,2.3l-9.5,1l-3-2l-4.4-1.6l-8.6,3.1l-3-2l-2.8,1.4l-0.8,4.2l-3.7,0.7l-4,3l-1.5-1.6
									l-1.7,0.6l-1.3,4.1l1.4,2.7l0.4,4.2l3,2.4l0.3,2.3l-1.8,2.7l1.8,4L107.3,304.1z"/>
								<g class="st1">
									<text transform="matrix(1 0 0 1 144.7575 233.7539)" class="st2 st3 st4">MITHAPUKUR</text>
								</g>
								<circle class="st2" cx="182.6" cy="213.5" r="6.9"/>
								<g>
									<text transform="matrix(1 0 0 1 130.945 217.9941)" class="st3 st6">RANGPUR   5</text>
								</g>
							</g>
							<g id="rangpur-1">
								<polygon class="st7" points="83.7,99.1 81.7,95.7 82,88.6 86.6,87.7 87.5,84.9 86.2,81.7 89.3,74.4 96.1,71 91,62.8 87.9,62 
									88.2,58.4 90.3,55.2 89.6,49.8 89.9,45.8 87.1,44.1 89.2,42.4 91.7,35.1 93.9,31.9 92.7,29.4 96.6,26.8 100.9,31.4 103.2,29.2 
									105.8,30.1 108.5,28.8 116,33.4 123.8,34.1 126.6,32.5 133.2,39.3 135.5,39.2 138.1,43.6 141.3,45.4 141.9,48.7 144.3,52.3 
									145.4,50.1 151,57.9 156.9,60.5 162.8,63.4 165,66.1 168.4,66.1 169.4,63.1 173.2,62.8 177.2,66.6 178.3,68.8 176,69.6 180.6,76.1 
									186.2,81.8 187.9,81.7 189.3,84.2 193.4,84.9 197.3,89.2 197,93.4 200,96 201.8,95.4 204.9,100.4 201,102.5 197.6,102.3 
									197.4,104.5 195.3,105.9 192.5,103.9 190.3,105 189.8,107.6 186.6,109.7 183.4,109.6 182.8,107 180.3,104.5 176.7,104.7 
									175.5,106.6 171.6,103 169.2,103 168.1,105.3 165.5,105.2 165.5,107 163.8,107.6 159.6,105.5 159.7,102.2 156.9,100.8 152.4,104.5 
									144.9,104.3 138.9,103.3 138.3,101.3 140.2,98.9 138.5,96.2 132.8,96.4 129.8,100.5 130.4,104.2 133.5,104.6 133.2,105.9 
									131.3,107.6 126.4,107.4 123.9,107.6 123.9,104.9 121.1,105.7 117.1,103.5 113.4,104 113.4,106.2 110.6,106.6 110,103.8 106.6,104 
									102.6,106.7 102.5,109.1 97.3,110.7 97.3,112.7 94.6,112.5 91.3,108.7 90.2,102.6 	"/>
								<text transform="matrix(1 0 0 1 110.3571 85.3105)" class="st3 st4">           </text>
								<g class="st1">
									<text transform="matrix(1 0 0 1 112.156 90.1436)" class="st2 st3 st4">GANGACHARA</text>
								</g>
								<circle class="st2" cx="153" cy="74.8" r="6.9"/>
								<g>
									<text transform="matrix(1 0 0 1 101.2946 79.2725)" class="st3 st6">RANGPUR   1</text>
								</g>
							</g>
							<g id="rangpur-4">
								<g id="dist-pirgacha">
									<path class="st0" d="M182,144.3l-2.3,5l4.1,1.8l1.6,3.5l2.1,0.7l0.8,2.8l1.7,0.4l1.4,0.1l1.4,2l-2,1.6H189l0.1,2.1l-1,1.1l-1-0.8
										l-4,3.4l3.1,5.5l1.3-1l2,2.3l-1.8,2.8l1.3,0.8l-0.3,2.1l-0.3,1.3l0.7,1.6l-0.3,2.1l2.3,1.6l3.4,0.6l1.8-0.1l1-1.4l-1-2.1l1.4-1
										l1.1,0.3v2.3l1.1,1.1l1.4,0.4l-0.1,2.7l1.3,0.1l0.7-1.7l0.6-0.8l-0.3-2.1l1-0.6l1,2.3l1.1,0.1l0.1,0.8l-1.6,1.6v1.7l1.7-0.6
										l1.4,0.8l-1.4,1.6l2,1.8l-0.1,0.8l-1.7,1c0,0-0.3,0.8-0.1,0.8c0.1,0,2.5,2,2.5,2h1.3l0.7-0.7v-1.3l1.1,1l1.7-0.3l1.4-0.6l1.3-1
										l1.3,0.6l0.4,3.3l-2,0.6c0,0-1.4,0.6-1.4,0.8s0,1.7,0,1.7l0.8,0.6l1.7-1.1l1.6,0.4l1.3,1.1l0.3,0.6l1.7-0.7l0.6,1l-2.5,1.3
										l0.1,1.7l1.8,1.1l1.4,2.8l-0.1,1.1l-1.3-0.3l-1.8-0.7l-1.6,0l-0.1,0.8l1.1,1.1l1.8-0.1l0.6,0.8l-2,1.3v1.1l2.1-0.1l3.1,0.6
										l0.6,1.3l-0.6,0.8l-1.7-0.3l-2.3-0.6l-1.4-0.1l-1.6,1.7l-0.1,1.1l0.8,0.4l2.3,0.6l0.8,1.4l-0.1,1l-2-0.1l-0.8,0.7l0.4,1l0.3,1
										l-1,0.7l-1.7,1.3l-1.1-1l-0.6,0.8l1,2h2.7h2.1l0.4,1c0,0-0.4,0.4-0.4,0.6c0,0.1-1.6,0.1-1.6,0.1l-0.4,2.1v1.3l2,2.5l0.3,0.7
										l-1,0.7l0.6,1l2.3-0.7l0.6,2h2.4l1.7-1.4l1-0.3c0,0,1.3-1,0.8-1.6c-0.4-0.6-0.6-1.7-0.6-1.7l0.4-0.4l1,1.3l0.4-2.4l-1-2.4l1.8-1.1
										l1.1-2.1c0,0,0-4,0-4.1s0.3-2,0.3-2l1.8-0.3l4.8,0.1l0.3,0.8l2.1,0.1l0.3-2h2.5v0.6l-0.8,1.3l0.6,1.6l2.1,0.3l0.8-0.4l1.3-0.8
										v-1.7l1.7-0.3l3.1-0.7l0.8-1.4l1.6,0.1v-2l2-0.1l1.4,0.8l0.4-0.7l-0.7-0.8l1.6-0.4l0.4,1.1l-0.4,2.3l2.3,2.7c0,0,2.3,2,2.3,2.1
										s1.3,1.7,1.3,1.7l0.1,1.8l1.6,0.7l1.7,0.8l1.4-1.6l-1.1-1.8l1.3-1.3c0,0,0.1-1.4,0.1-1.6c0-0.1-2.4-2-2.4-2l-0.7-1.7l-0.6-3.3
										l0.8-2.4l1-2.8l-0.1-1.1l1-1.3l1.4,0.1l1,1.7l1.1,0.1l1-1l-0.3-1.1l-1.8-0.3l-0.3-1.8l-1.1-1l0.6-1.4l1.7,1.8l2.8,1.3l3.1-1
										l1.7-1.8l1.1,0.4l1.1-1l-1.8-2.3l2.4-3.3l2.8-4l2-2.3v-3.4l-0.6-1l-1.1,0.3l0.3,2.1l-0.6,0.7l-1.6-1.4l-1.1,0.6l-0.3,1.6l-0.4,1
										l-1-0.3l-0.3-6.8h-2.2l0.7-5.5l1.8-5.7l0.7-2.5l-0.1-1.1l-2-0.4l-0.8-5.2l0.7-3.8l-0.3-2.3l-2-3.1l-0.3-1.7l-1.8-0.6l-2,1.1
										l-3.1,0.3l-1.4-0.1l-9.6,0.7l-0.8,1.4l-5.1-0.7l-1.7,5.1l-3.1,1.3l-3.3-1.7l1.3-2.7l-1.6-0.4l1.4-4.1l-3.8-2.5l3.3-0.7V151
										l-3.3,0.1l-0.8-2.7l-3-0.8l-3.1,0.7l-5.7-3l-3.4-0.8l-2.7,1.3l0.8,3.1l-3.1,2.5l-2.7-2.3l-8.4,0.3l-2.1,5l-2.4-0.1l-0.6-2.3
										l-1.6,0.4l0.4,2l-1.8,1.8l-2.5,0.3l-1.3-2.1l1.3-4.1l-1.7-0.8l-0.4-3.3l1.1-4.2l-4-4.2l-4.2,1l-4.8,2.7l-2.5,0.6l-1.6,2.7
										L182,144.3z"/>
									<g class="st1">
										<text transform="matrix(1 0 0 1 232.695 195.7021)" class="st2 st3 st4">PIRGACHA</text>
									</g>
									<circle class="st2" cx="258.7" cy="176.4" r="6.9"/>
									<g>
										<text transform="matrix(1 0 0 1 207.071 180.8701)" class="st3 st6">RANGPUR   4</text>
									</g>
								</g>
								<g id="dist-kaunia">
									<path class="st0" d="M181.8,144.3l2.4,0.3l1.4-2.7l2.7-0.6l4.7-2.7l4.4-1l4,4.1l-1.1,4.5l0.6,3.3l1.6,0.7l-1.1,4l1,2.4l2.7-0.4
										l1.8-1.7l-0.4-2.1l1.6-0.3l0.6,2.3c0,0,2.3,0.4,2.4,0.1s2-5,2-5l8.5-0.6l2.5,2.5l3.3-2.5l-1-3.3l2.7-1.3l3.7,0.8l5.4,3l3.4-0.7
										l2.8,0.8l0.8,2.7l3.3-0.1v1.8l-3.1,0.7l3.7,2.5l-1.4,4.1l1.7,0.4L248,163l3.3,1.7l3.1-1.3l1.8-5.1l5,0.7l0.7-1.4l9.9-0.7v-1.8
										l-3.4-6.1l3.3-1.6l3.3,0.7l0.8-6.4l-1.1-3l-2.7-1.6l-2.4,0.3l-0.7-2.4l-2.1,0.8l-1.3-2.4l0.1-2.5l-7.6-11.2l-2.5,0.8l0.4-2.4
										l-1.4-0.4l-7.1,0.3l-5.1-1.4l0.7-3l-1.8-0.4l-4.4,1.7l-4.1-0.6l-1-0.8l-2.1,0.3l-6.4-1l-3.5-2.5l-4.8-4.2l0.3-3l-2.5-1.3l-2.1,0.6
										l-5.1-2.4l-4.3,2.5h-3.4l-0.3,1.4l-2.4,1.6l-3-1.6l-1.8,1.1l-0.6,2.3l-0.8,1l0.1,1.1l-1.3,3.1l0.8,0.7l-0.4,1.4l-3.1,1l0.4,4.2
										l-6.2,21.1l0.1,1.4l1.3-0.1L181.8,144.3z"/>
									<g class="st1">
										<text transform="matrix(1 0 0 1 211.194 136.8379)" class="st2 st3 st4">KAUNIA</text>
									</g>
								</g>
							</g>
							<g id="rangpur-6">
								<path class="st7" d="M107.3,304.3l1.8-5.9l1.3-3.7l-1.8-4.2l1.8-2.3l-0.3-2.5l-3-2.4l-0.4-4.2c0,0-1.6-2.5-1.4-2.7
									c0.1-0.1,1.1-4.1,1.1-4.1s1.8-0.6,2-0.6s1.1,2,1.1,2l3.8-3.1l3.8-0.7l0.8-4.2l2.8-1.4l2.8,2l8.8-3.3l4.4,1.6l2.8,2.1l9.6-1l0.8-2.3
									l2.5-0.6v-4.5l2.8-1.8l2.8,2.1l2.1-0.1l2.5,1l-0.4,2.4l3.7,1.3l0.3-1.6l0-2.1l1.8-1.8l2.4,3.1l2.8-0.6l3.4,3.4l1,1.6
									c0,0,1.8-0.6,1.8-0.7s0-3.3,0-3.3l3.4-0.7l5.1,1.4l1.8,0.7l-0.3,1.3l-2.3,1.6l0.7,2.5l2.7-0.4l5.1-2l1.4,0.8l-1.1,2.7h3.1l3.8-0.8
									l3.1,1l5.7,0.6l3.4-0.4l0.6-1.7l3.7,2.1l0.1,2.4l3.4,3l2.4,1.4l4.2-0.3l0.7,1.4l-1.8,3v1.7l2,2.3l-0.8,2.1l-0.8,0.7l-2.4-0.3
									l-0.3,3l-2.3,7.5h-5.4l-1,1.1l-1,5l1.7,0.1l1.3,2.4l-0.8,1.8l-2,0.4l0.3,1.3l1.4,0.4l-1.8,2.8l0.3,2.3l-2.1,2.5l-1.8,0.1l-1.7,1.6
									l0.4,1.3l-0.8,2l-0.5,2.6l-0.6,1.8l-1.6,1l-1.8,0.4l-2.1,3.1l-0.3,0.7l0.4,0.8l0.1,2.1l-1,0.6l-1.3,0.1l-3.1,2.7l0.7,1l-0.1,1.4
									l0.8,1.6c0,0,0.3,2,0.3,2.1s-1.7,3.5-1.7,3.5l-0.6,1.7l-0.1,2l0.1,1.1l1.6,0.1l1.3-0.4l0.8,1l-0.8,3.7l-0.6,0.6l-2.4-0.7l-1.3,1.1
									l-1.8,0.4l-0.7,0.8v1.8l0.7,2.1l0.1,1.3l1.6-0.7l1.6-0.3c0,0,0-1.8,0.3-1.8s1,0,1,0l1.4,2.4l-0.1,2.5l-0.7,1.4l-1.4,1.7l-1.8,0.4
									l-1-0.4c0,0-0.4,1.3-0.6,1.3s-1.6,0.3-1.6,0.3l-1.3-1.3l-1,1.7l-2.1-1.3l-2-0.1l-2.1,2l-1.7-0.6h-3.5l-3.5,0.8l-2.3-0.1l-1.1-1.6
									l-2.3,0.3V370l-1.1-0.8h-2.8l-2-3l-1.6-1.3l-1.8,1l-1,1.3l-1-0.4l0.8-1.3l3.1-3.1v-0.9l-1.8-1.6l-1.6,1.8l-0.6,1.6l-0.8,1.1
									l-1.4,0.1l-0.6-0.6l-2.4-1l-1.4,0.6l-2.1-0.7l-1.4-2.1l0.6-1.8l1.3-1c0,0,1.7,0.1,1.8,0s1.1-1.1,1.1-1.1l0.3-1.4l-1.1-0.8l-1,0.4
									l-3,0.1l-1-0.7l-0.1-1.1l-1.3-1l-0.3,0.6l0.3,2.3l-0.6,1.4l-1.6,0.3l-1.7-0.4l-0.4-1.6l1.3-2.3l0.3-1.7l1.3-1l-0.4-1.1l1-1.8
									l0.4-0.1l0.3,2l1.1,1.1l1,0.1l1.4,1.3l1-0.8l-2-1.7l0.1-1.3l1.7-0.4l2.7-2.1l-0.1-1.4l-2.7,2.1l-1.8-1.6l-1.3-1.4V342l1.6,0.3
									c0,0,1.3-1.6,1.3-1.7s-0.8-1.8-0.8-1.8l-0.1-2.7l-1.6-1l-1.6,0.4l0.8,2.4l-0.6,1.3l-3,1.1l-0.6-0.6l1.8-1.7l-0.4-1.6l-3.4-1.4
									l-3.8,0.1l-1-0.8l1-1.1l1.7-1.6l-1.8-2.4l-3.7-3.5l0.3-1.3l-2.1-2.8l-1.3,1.1l1.3,1.4l-0.3,0.8l-1.8-0.4l-2-0.7l-2.3,2.3l-1.3-0.6
									l-0.6-3.7l-0.7-0.1l-1,0.6l-2.4-2.7l-0.1-1.7l-2.1-1.3l-0.8,0.6l-1.1,1.6l-0.7,0.4l-1.1-0.4l0.1-1.3l-0.8-1.3l-1.1,1.7l-1.1,0.1
									l-2.5-0.8l-0.1-0.8l1-0.3l2,0.7l0.3-0.8l-1.6-1.8l-1.6,0.6l-1,0.8l-2-0.8l-2.1-0.7l-1.7-0.8l0.4-1.6l2.3,0.8c0,0,1.7,0.8,1.8,0.8
									s2.5-0.7,2.5-0.7l0.6-2.1l-0.8-1.1v-1.9l0.6-1.4L107.3,304.3z"/>
								<g class="st1">
									<text transform="matrix(1 0 0 1 150.5759 304.8115)" class="st2 st3 st4">PIRGANJ</text>
								</g>
								<circle class="st2" cx="182.6" cy="288.7" r="6.9"/>
								<g>
									<text transform="matrix(1 0 0 1 130.945 293.1787)" class="st3 st6">RANGPUR   6</text>
								</g>
							</g>
							</svg> 