<?xml version="1.0" encoding="utf-8"?>
<!-- Generator: Adobe Illustrator 22.1.0, SVG Export Plug-In . SVG Version: 6.00 Build 0)  -->
<svg version="1.1" id="Layer_1" xmlns="http://www.w3.org/2000/svg" xmlns:xlink="http://www.w3.org/1999/xlink" x="0px" y="0px"
	 viewBox="0 0 400 600" style="enable-background:new 0 0 400 600;" xml:space="preserve">
<style type="text/css">
	.st0{fill:#B2B208;stroke:#FFFFFF;stroke-width:0.75;stroke-miterlimit:10;}
	.st1{opacity:0.5;}
	.st2{fill:#FFFFFF;}
	.st3{font-family:'MyriadPro-BoldCond';}
	.st4{font-size:10.7622px;}
	.st5{font-size:15.1214px;}
	.st6{fill:#D4DB75;stroke:#FFFFFF;stroke-width:0.75;stroke-miterlimit:10;}
	.st7{fill:#A5A00C;stroke:#FFFFFF;stroke-width:0.75;stroke-miterlimit:10;}
	.st8{fill:#E0C500;stroke:#FFFFFF;stroke-width:0.75;stroke-miterlimit:10;}
</style>
<g id="dist-saghata">
	<path class="st0" d="M231.1,467.7l3,1.8l5.6-0.3h6.2l3.6,0.9l1.2-2.1l2.7,1.2l0.6-2.4l11.3-1.5l3-2.7l6.2-0.3l10.4,6.2h3.9l0.9-3.3
		l3.9-1.8l2.7-0.9v-8.3l-2.1-2.7l1.2-5.3h-3.6l-4.2-7.4l3-3.9v-4.5l-13.4,0.3l-0.6,7.7h-2.4l-0.6-1.8l-2.4-0.6l-0.6-8.9l1.8-4.5
		l2.4-3.3l-0.3-5.3l2.7-7.1l-3.6-2.4l-3,6.8l-3.3-5l1.5-5.9h3.6l0.6-5.3l-9.2-7.7l-3.6,0.3l0.3-6.2l-3.9-8.3l-1.5-4.5L251,368
		l0.6-3.6c0,0,2.1,0,2.1-0.3s-4.5-5.6-4.5-5.6l-2.4,3.3l-4.2,3.6l-8.3-0.6l-1.8,3.9l-3-0.6l-1.8-1.8l-3.9,3.3l-2.4,3.9l-0.3,3.9
		l-2.1,3.3l0.3,3.3l-8.6,13.1l2.1,2.1l-1.8,5.9l-2.1,8.6l2.4,5.3l8,3.9l-0.9,6.8l3.6,3.3l-3.9,8.6l-3-2.7l-1.5,3l2.1,3v5.9l5.9,3
		l2.4,6.5l4.5,3.3L231.1,467.7z"/>
	<g class="st1">
		<text transform="matrix(1 0 0 1 229.2402 428.2393)" class="st2 st3 st4">SAGHATA</text>
	</g>
</g>
<g id="dist-fulchari">
	<path class="st0" d="M290.2,430.9l2.1-0.3l-0.6-5v-4.5l0.9-9.2l6.2-9.2l5.6-7.1l0.3-3.9l6.5-15.1l3.6-5.6l2.7-7.7l2.4-2.4l8-0.3
		l4.2,1.5l10.4-2.4l1.2-5.3l-0.9-6.5v-7.4l2.1-0.9l1.2-3.6l-2.7-8l-3.6-5.9l-1.2-9.2l-3.3-9.2l-2.4-0.9l-0.9-3.6l-4.2,0.6l-1.5-13.7
		l-3.9-1.8l-3-5.3l1.2-2.1l-5-1.2l-1.5,4.2l0.6,9.5l-6.2-1.2l0.9,5l-1.5,4.2l-3.9,5.3l-3.9,4.8l-3.9-0.6l1.2,4.2l-2.4,2.1l-5.3-1.8
		l-1.8-7.4l-4.5,1.5l-5.9-2.1l-3.6,3l-2.7-1.8l-1.8,5.3l-3.3-1.5l-4.2,0.6l-4.8-2.4l-2.1,4.8v6.5l-3.3,2.7l1.2,1.5l2.7-0.9l0.6,2.4
		L251,327l0.9,3l3-2.7l-1.5,7.7l2.4,2.1l-0.6,1.8l-3-0.3l-4.2,3.3l0.6,1.8l2.7-0.9l-0.9,5.9l-3.3,3c0,0,1.2,2.7,1.5,2.4
		c0.3-0.3,2.7-2.4,2.7-2.4l-0.9,4.2l2.7,7.4l0.3,0.9l-1.5,0.3L251,368l4.2,0.9l5,12.8v6.2l3.6-0.3l8.9,7.4l-0.3,5.6h-3.6l-1.5,5.9
		l3.3,5l3-6.8l3.6,2.1l-2.4,7.1v5.6l-2.4,3.3l-1.8,4.8l0.6,8.3l2.4,0.9l0.6,1.8h2.4l0.6-7.7H290.2z"/>
	<g class="st1">
		<text transform="matrix(1 0 0 1 281.6543 339.002)" class="st2 st3 st4">FULCHARI</text>
	</g>
	<g>
		<circle class="st2" cx="263.9" cy="348.1" r="8.2"/>
		<g>
			<text transform="matrix(1 0 0 1 260.3896 353.4297)" class="st3 st5">5</text>
		</g>
		<g>
			<text transform="matrix(1 0 0 1 277.8018 353.8574)" class="st3 st5">GAIBANDHA</text>
		</g>
	</g>
</g>
<g id="dist-gobindaganj">
	<path class="st6" d="M103.4,440.4l4.2-5.9l3.3-6.5l5-3l8.3,2.1l7.1-3l3.9,7.1l-4.5,2.7l1.5,2.7l4.5,2.4l2.4-1.8l3.6,5l4.5,1.2
		l-3.9,3l3.6,8.9l4.2-0.6l6.8,5l0.9,5.6l2.4-0.3l0.6-9.8l5.9,0.9l0.3-2.4l-1.8-5l4.8,1.5l2.4-3.6l4.5,3.9l0.6,6.8h2.4l1.2-4.5
		l3.6-0.6l1.5,3l5.9-4.5l1.8,2.1l-3,4.8l1.2,5l2.1-5.3l4.2,1.5l-2.4,4.5l5.9-0.9l1.5-3.3l8.9-0.6l-0.3,4.8l7.4,3.9l6.5,2.7l4.8-2.1
		l-2.7-4.5l-4.5-3.3l-2.4-6.2l-5.9-3.3v-5.9l-2.1-3l1.5-3l3,2.7l3.9-8.6l-3.6-3.3l1.2-6.8l-8.3-3.9l-2.1-5.6l1.5-8.3
		c0,0,2.1-5.3,2.1-5.6c0-0.3-2.1-2.4-2.1-2.4l5.3-7.7l3.6-5.3l-0.6-3.3l-3.3-0.3l-1.8-3l-6.2-1.5l3-5.6l-0.9-3l-8-2.1l3.9-3.3
		l-1.2-5.6l-8.3,1.2l-11.9-0.9l-1.5-5.3l-5.9,1.2l1.5,2.7l-3.3,3.9l2.7,4.2l-0.9,1.5l-4.2-2.1l-5.6,1.8l-1.2-1.2l0.9-3.9l-1.8-0.9
		l-6.2,4.5l-3.3,1.8l0.6,2.4h-4.8v-5.3l-2.7-3l-2.7-2.7l2.1-3l-0.9-1.8l-7.1,2.4l2.7,4.8l1.8,4.2l-3.3,1.8l5,6.5l-0.6,2.4l-4.8-3.6
		l-5-0.3l1.8,3l-0.9,2.7l-6.2-1.5l-1.8-3l-5-5.3l-6.8-1.2l-1.5,3.9l-7.4-0.9l-0.9-4.8l-7.7-0.6l-0.3,2.7l2.4,1.8l-5.3,0.9l-5.6-1.5
		l-3.9,1.5l-3.6-1.8l-2.4-3.6l-4.5,0.9l-0.9-3.6l-5,0.3l-4.8,5.6l-2.7,4.2l-4.2,2.7l1.5,4.5l-1.5,3.3l0.3,5l-4.8,3.9l1.5,2.1h5.3
		l0.9,5.9l3,0.3l6.2,4.8l3.6,2.7l-3.9,5L72,411l7.4-0.3l2.4,9.5l6.2,5.3l-1.5,3.6l3.6,7.4l5-0.6l1.2,2.7L103.4,440.4z"/>
	<g class="st1">
		<text transform="matrix(1 0 0 1 126.1328 405.3613)" class="st2 st3 st4">GOBINDAGANJ</text>
	</g>
	<circle class="st2" cx="173.1" cy="387.1" r="8.2"/>
	<g>
		<text transform="matrix(1 0 0 1 169.6611 392.4941)" class="st3 st5">4</text>
	</g>
	<g>
		<text transform="matrix(1 0 0 1 98.8652 392.9219)" class="st3 st5">GAIBANDHA</text>
	</g>
</g>
<g id="dist-palashbari">
	<path class="st7" d="M117.1,364.1l-3.6-0.6l-3.9-8l-0.6-6.2l-7.4-5.3l-4.2-8.3l-4.5-3l0.6-1.8l7.4-0.9l0.6-1.5l-4.2-0.3l0.6-4.2
		l10.1-0.6l5.3,1.5l8.3-0.3l3.3-2.1l7.4,0.9l3.6-2.4l3.3-1.5l1.2,3.3v3.3l3.6,2.7c0,0,3.3-2.7,3.3-3c0-0.3-1.2-3-1.2-3l3.6-2.1
		l6.8,2.4l3.3-1.5l2.7-3.3l8.3,3.9l4.8,1.2l4.8-3l7.4-0.9l3.9-1.5l1.8-1.8l7.4,0.3l4.2,3.3l0.6,2.1l-4.2,3.3l1.8,1.8l-2.1,3.9
		l1.2,2.1l-1.5,4.5l3.9,2.1l8.3-1.8l3.3,3.3v3h2.7l1.2-4.5l7.1,0.3l4.8,3l-1.8,3l1.5,3l-4.5,0.3l-4.2,3.9l0.9,3.9l1.5,2.7l0.3,5.6
		l-1.5,4.5l-2.7,4.2l-0.3,3.6l-2.4,3.6l-3.3-0.9l-1.8-2.7l-5.3-1.5l2.4-5.6l-1.2-3l-7.4-2.1l3.3-3.3l-0.9-5.6l-8.3,1.2l-11.6-0.9
		l-2.1-5.3l-5,1.2l0.6,2.4l-2.7,4.5l2.1,3.9l-0.3,1.2l-4.5-1.8l-5.3,1.8l-1.2-1.5l0.3-3.6l-1.2-0.6l-6.8,4.5l-3.3,1.5l0.9,2.1
		l-4.8,0.3l-0.3-5.3l-5-5.6l2.1-3.3l-0.9-1.5l-6.8,2.7l2.4,4.2l1.5,4.5l-2.7,1.8l4.8,6.5l-0.6,2.1l-4.8-3l-4.8-0.6l1.5,3l-0.9,2.7
		l-6.5-1.5l-1.5-3l-5.3-5.3L117.1,364.1z"/>
	<g class="st1">
		<text transform="matrix(1 0 0 1 135.2881 346.1152)" class="st2 st3 st4">PALASHBARI</text>
	</g>
</g>
<g id="dist-gaibandha">
	<path class="st8" d="M335,303.6c0,0-0.6-3.3-0.6-3.6s-5-6.5-5-6.5l9.2-9.2l0.3-3.3l-1.5-0.3l3.6-6.2l-3.6-1.8l0.3-4.5l-1.2-0.9
		l-4.2,2.4l-8,0.6l-3.3,0.9l-1.5-0.9l-1.5,1.2l-0.9-2.1l-2.1-3l4.5-2.7l-5-0.6l-7.1,2.1l-3.6,3.3L303,270l-7.1-0.9l-4.2-1.8
		l-4.8,0.3l-2.1-3.6l-2.7-1.2l-1.5,2.4l-5.6-2.1l3.9-1.5l-0.9-1.5l-4.2,0.6l0.3-4.2l-1.5-1.5l-1.8,1.2l-6.2-0.9l-0.3-4.8l-2.7-3
		l-4.2,2.7l-5.6-7.7l-3.6,0.3l-1.2,3.3L243,246l-3,2.1l-6.8-2.7l-3.3,2.1l-7.4-0.6l-0.9,3l0.9,1.2l-0.9,4.5l-1.5,2.1l-2.1,3.3l0.6,3
		l-2.1,2.1l-1.5,3.9l0.9,1.2l-0.6,3l1.5,1.8l3.9,0.3l-6.5,8.3l-1.8,1.2l-4.5-0.9l-1.2-3l-4.5-0.3l2.1,2.4l-0.9,2.4l0.6,2.7l-0.3,3.3
		l2.1,1.5h-4.5l3.3,5.6l-3.3,1.2l-6.5-2.1l-3,1.2l-3.9-4.5l-1.8-0.6l-3.3,1.2l0.9,3.9l-0.3,4.5l1.2,1.2l-1.5,3.3l-0.9,5.9v5.9
		l6.2-0.9l3.3-1.5l1.5-1.5l7.1,0.3l4.5,3.3l0.3,2.1l-3.3,3.3l1.2,1.8l-2.1,3.9l1.2,2.1l-1.5,4.5l3.9,2.1l8.3-1.8l3.3,3.3v3h2.4
		l1.8-4.5l6.5,0.3l4.8,3l-1.5,3l1.2,2.7l-4.2,0.6l-4.2,3.9l0.9,3.9l1.5,2.7l0.3,5.6l-1.2,3.6l3.3-2.4l1.8,1.8l3,0.6l1.8-3.9l8.3,0.6
		l4.2-3.6l2.4-3.3l3.3,3.6l-1.8-6.2l0.3-3.9l-2.4,2.1l-1.5-2.1l3.3-3.3l0.9-5.9l-2.7,0.9l-0.6-1.8l4.2-3.3l2.7,0.3l0.9-1.8l-2.4-2.1
		l1.5-7.7l-3,2.7l-0.9-3l5.6-3.6l-0.6-2.4l-2.7,0.9l-1.2-1.5l3.3-2.7v-6.5l2.1-4.5l4.8,2.1l4.2-0.6l3,1.5l2.1-5l2.7,1.2l3.9-2.7
		l5.6,2.1l4.5-1.5l1.8,7.1l5.3,2.1l2.4-2.1l-0.9-3.9l3.6,0.3l7.7-10.1l1.5-4.5l-0.9-4.8l5.9,1.2l-0.3-9.2l1.5-4.2l4.8,0.9l-0.9,2.1
		l3,5.3l3.9,1.8l1.5,13.7l4.2-0.6l0.9,3.6L335,303.6z"/>
	<g class="st1">
		<text transform="matrix(1 0 0 1 215.6123 304.4336)" class="st2 st3 st4">GAIBANDHA</text>
	</g>
	<g>
		<circle class="st2" cx="231.1" cy="282.5" r="8.2"/>
		<g>
			<text transform="matrix(1 0 0 1 227.627 287.9043)" class="st3 st5">2</text>
		</g>
		<g>
			<text transform="matrix(1 0 0 1 245.0391 288.332)" class="st3 st5">GAIBANDHA</text>
		</g>
	</g>
</g>
<g id="dist-sadullapur">
	<path class="st7" d="M139.1,319.6l0.6-3.6l-0.9-2.4l-1.5,0.3l-0.9,2.4L134,316l-1.5-3.3l0.9-2.7l3.6-1.8l2.7,0.6l1.2-1.2v-4.2
		l-2.4,1.2l-1.8-1.5v-2.7l2.4-6.2c0,0-1.2-3.9-1.2-4.2c0-0.3,1.2-5,1.2-5l5-0.3v-2.4l-2.1-2.4l3-3.6l2.4-0.3l2.1-1.5l1.2-6.5
		l1.8-3.3h2.1l2.1-3.6l-0.6-3l1.8-1.2l-1.5-2.7l2.4-1.8l-0.3-3l-2.7-0.9l1.8-6.8l5.6,0.3c0,0,1.8-5.3,1.8-5.9c0-0.6,1.2-2.7,1.2-2.7
		l0.3-3.3h3.3l3.6,2.4l2.7-1.2v-2.4l3-0.3v-3l3.3,0.9c0,0,2.1-1.8,2.1-2.4c0-0.6,0.6-5.6,0.6-5.6h3l1.8-3l5.6,1.5l6.5-1.2l5-0.3
		l1.5-3.6l2.7-0.9l1.5-3.6h1.5v3l2.7,0.9l-1.8,4.5l-2.1,0.3v1.5l3.6-0.3l3.6,3.6l-1.5,1.2l-2.7,2.1l-5.3,1.2l0.9,1.8l-1.5,3h-2.4
		l-0.3,3.6l3,3h3.9l2.4,2.7l0.3,4.8l3,0.6l3,1.8l-0.9,3l0.9,1.5l-0.6,4.5l-1.8,1.8l-2.1,3.6l0.9,2.7l-2.7,2.1l-1.2,3.6l1.2,1.8
		l-1.2,2.7l1.8,1.8l3.9,0.3l-6.5,8.3l-2.1,1.2l-4.2-0.9l-1.2-3l-4.5-0.3l2.1,2.7l-0.9,2.1l0.6,3l-0.3,3l2.4,1.5h-4.8l3.6,5.9
		l-3.6,0.9l-6.2-2.1l-3.6,1.2l-3.3-4.5l-2.1-0.6l-3.6,1.2l1.2,3.9l-0.3,4.5l1.5,1.2l-1.8,3.3l-0.6,3.9l-0.3,2.1l-0.3,6.2l-6.2,3
		l-5-1.2l-8.3-3.9l-3,3.3l-3,1.5l-7.1-2.1l-3,1.8l0.9,3l-3.3,3l-3.6-2.7v-3.6L139.1,319.6"/>
	<g class="st1">
		<text transform="matrix(1 0 0 1 144.9873 289.8052)" class="st2 st3 st4">SADULLAPUR</text>
	</g>
	<circle class="st2" cx="197.1" cy="264.9" r="8.2"/>
	<g>
		<text transform="matrix(1 0 0 1 193.6035 270.2627)" class="st3 st5">3</text>
	</g>
	<g>
		<text transform="matrix(1 0 0 1 122.8076 270.6904)" class="st3 st5">GAIBANDHA</text>
	</g>
</g>
<g id="dist-sundarganj">
	<path class="st6" d="M189.5,216.3l-2.4-3.6l1.5-3l-1.5-4.8l5-3.3l-1.5-1.8l-4.2,1.2l-1.8-1.8l1.5-2.4l3.3,1.2l2.4-3.3L191,194
		c0,0-4.2,0.9-3.9,0.9c0.3,0-0.9-5-0.9-5l-3.3,4.5l-2.1-1.5l1.8-2.7l-4.8,1.2l-0.6,3.9l-2.1-0.6v-3h-3l-1.8,2.7l-4.2-3.6l1.5-1.5
		l1.8,1.5l5-1.2l-4.8-2.7l-1.5-4.2c0,0,2.4-2.1,2.4-3s-0.6-6.2-0.6-6.2l3-4.2l0.6-6.2l1.8-0.9l8,0.3l0.6-1.8l2.4,0.3l-0.9,2.1
		l1.2,2.1l3.9-1.2l0.6-1.8l5.3-2.1l3.6-3l3-0.9l1.5,1.2l0.3,3l3,3.6l0.3,2.1l2.4,0.6l0.3,2.1l3.3,1.5l0.9-0.9l-0.6-2.4l1.8-2.7
		l-3.3-2.7l-0.9-6.8l2.1-6.2l2.1-0.3l2.1,2.4l0.6-2.4l-3-3.9l1.2-1.2l3,3.3c0,0,2.7-0.3,3-0.3s3.3-3.3,3.3-3.3l1.8,1.8l1.5-2.1
		l-2.4-2.7l5.9-8.3l2.7-1.8l2.4,2.7l3,0.9l3,4.2v3.9l-1.8,4.5l0.6,3l1.5,1.5l-1.2,1.2l-2.4-0.9l-1.5,3.6h-3l0.3,3.3l1.8,4.2l8,2.1
		h6.5l2.4,3.9l3.3,4.5l1.2,3.9l3.9,3.6h3l6.2-5v-1.2l2.4,0.9l1.8-1.5c0,0,4.5,1.8,4.8,2.1s9.8,10.4,9.8,10.4l7.7,3.9l4.8,3.9
		l6.5,0.3l5-1.8l3,1.2l0.6,3l-3,0.3l-0.3,2.4l-4.2,1.8l-1.5,3.3l0.6,3.6l7.4,5l0.6,3.9l-2.4,2.1l-9.8-1.2l-2.4,1.8l0.6,3.3l7.1,5.3
		l-3.3,3.3l2.4,2.1l2.7-1.8l3,0.3l0.9-2.1l4.8,0.6l0.9,3.3l-1.5,8.6l-4.2,9.5l-4.2,5.3l0.9,2.1l5-2.7l1.8,2.7l-1.8,5.9l-5-0.9
		l-7.1,2.4l-3.9,3l-0.4,1.3l-7.3-0.9l-4.2-1.6l-4.7,0l-2-3.4l-2.5-1.1l-1.9,2.2l-5-1.9l3.3-1.7l-1.2-1.4l-3.5,0.6v-4.5l-1.8-1.2
		l-1.2,1.2l-6.5-1.2l-0.3-4.8l-3-2.4l-3.9,2.1l-5.8-7.3l-3.5,0.3l-1.2,2.8l-3.9,0.3l-3.3,1.5l-6.8-2.1l-3.1,1.9l-7.5-0.6l-3.4-1.9
		l-2.7-0.9l-0.3-4.8l-2.4-2.4h-3.3l-3.6-3l0.3-3.6h2.1l1.8-3l-0.9-2.1l5-0.6l4.5-3.6l-3.6-3.6l-3.6,0.3v-1.5l2.1-0.3l1.8-4.5
		l-2.7-0.9v-3h-1.5l-1.5,3.6l-2.7,0.9l-1.5,3.6l-5.3,0.3l-5.9,1.2L189.5,216.3"/>
	<g class="st1">
		<text transform="matrix(1 0 0 1 243.1094 207.2212)" class="st2 st3 st4">SUNDARGANJ</text>
	</g>
	<g>
		<circle class="st2" cx="209.7" cy="188" r="8.2"/>
		<g>
			<text transform="matrix(1 0 0 1 206.2051 193.3955)" class="st3 st5">1</text>
		</g>
		<g>
			<text transform="matrix(1 0 0 1 223.6172 193.8232)" class="st3 st5">GAIBANDHA</text>
		</g>
	</g>
</g>
</svg>
