<?xml version="1.0" encoding="utf-8"?>
<!-- Generator: Adobe Illustrator 22.1.0, SVG Export Plug-In . SVG Version: 6.00 Build 0)  -->
<svg version="1.1" id="Layer_1" xmlns="http://www.w3.org/2000/svg" xmlns:xlink="http://www.w3.org/1999/xlink" x="0px" y="0px"
	 viewBox="0 0 400 600" style="enable-background:new 0 0 400 600;" xml:space="preserve">
<style type="text/css">
	.st0{fill:#FF6666;stroke:#FFFFFF;stroke-width:0.75;stroke-miterlimit:10;}
	.st1{opacity:0.5;fill:#FFFFFF;}
	.st2{font-family:'MyriadPro-BoldCond';}
	.st3{font-size:10.7175px;}
	.st4{font-size:24.3729px;}
	.st5{fill:#FFFFFF;}
	.st6{font-size:15.0586px;}
	.st7{fill:#CC3333;stroke:#FFFFFF;stroke-width:0.75;stroke-miterlimit:10;}
	.st8{fill:#FF9685;stroke:#FFFFFF;stroke-width:0.75;stroke-miterlimit:10;}
	.st9{fill:#F44040;stroke:#FFFFFF;stroke-width:0.75;stroke-miterlimit:10;}
	.st10{opacity:0.5;}
</style>
<g id="upa-ran-NILFAMARI_1">
	<polygon class="st0" points="84.8,116.2 81.2,96.2 86.4,86.7 86.8,78.2 87.2,72 82.3,67.3 83.6,61.1 87.9,62.4 95.3,60.7 
		99.8,59.4 107.5,55.7 110.5,54 117.4,57.4 121.9,61.9 128.3,66.6 127.8,69.9 124,72.4 123.4,81 122.1,83.3 126.1,86.1 125.7,91.2 
		123.4,93.4 124.2,101.5 128,100.4 132.3,103.6 131.5,105.6 132.7,107 135.5,105.5 136.8,107.1 134.5,110.1 136.2,114.1 
		143.7,116.9 143.4,120.9 147.5,121 155.9,118.4 159.9,121.8 167.2,120.1 171.2,121 172.1,123.7 166.3,128.9 166.8,131.8 
		173.8,137.4 174.7,143.8 173.2,150 175.1,156.7 175.5,162.7 177.7,167.8 183.2,171.8 187.7,174.8 188.8,188.3 187.5,202.4 
		183.9,215.9 181.9,216.3 178.3,214.6 176.6,215.7 176.8,227.7 174.7,229.6 171.4,237.1 171.9,243.3 163.7,247.7 163.8,251.4 
		167.8,255.2 165.5,259.1 164.6,265.7 166.3,267.8 166.1,269.3 162.7,271.9 159.9,270.2 158.8,267.8 157.1,268.5 156.9,272.3 
		155.6,275.5 150.7,276.2 142.2,278.5 141.5,280.5 144.3,282.6 148.4,282.4 149.9,284.1 149.4,285.6 145.1,286 140.2,287.3 
		136.4,286.2 133.6,283 131,283 130.4,287.1 131.3,290.9 129.8,292.9 126.6,292.2 122.7,289.7 120.4,284.9 116.5,283.2 113.3,280.4 
		107.9,280 102.6,274.3 99.8,270.8 92.1,271.7 92.3,270.8 94.5,268.1 94.3,265.7 97.1,261 93,257.2 94.5,254.1 87.4,249 83.4,247.9 
		80.1,242.8 80.8,242 84.8,242.8 88.7,239 93.4,228.5 93.2,225.7 98.1,221.4 101.8,215.2 103.7,213.8 104.5,206 99.6,204.8 
		100.2,196.2 100,192.8 101.5,191.9 100.2,187.7 100.2,184.7 95.6,178.3 97.7,166.5 93.8,165.8 94.1,163.7 99.2,163.7 101.3,160.9 
		108,156.2 108.4,151.3 110.3,149 110.3,144 105.4,143.6 104.9,142.6 105.8,138.9 109.7,138.3 109.4,131.6 103.3,121.4 97.9,116.3 
		94.1,114.3 86.1,117.5 	"/>
	<polygon class="st0" points="171.3,121.5 172.6,119.6 171.8,115.1 173.1,112.3 172.2,111 169.2,113.8 167.5,112.9 167.7,109.3 
		162.2,104.2 160.4,99 160.4,91.8 162.4,88.6 160,84.3 164.5,82.6 164.7,77.6 173,72.3 202.8,71.5 210.5,75.7 217.1,87.3 
		221.4,94.1 231.8,111.7 239.5,114.8 245.8,113.2 254.3,110.4 280.6,110.1 282.3,112.1 280.8,114.8 286.6,123.4 292.6,124 
		296.9,130.7 294.5,133.7 293,141.6 293.9,143.9 290.4,148.6 286.8,148.9 282.7,151.4 282.1,154.2 284,155 286,153.5 290.7,155.7 
		292.6,163.8 298.8,171.9 301.8,172.4 301.8,170 304.6,168.3 311.2,174.5 318.7,175.4 324.4,174.1 332.4,180.5 334.7,187.1 
		340.7,192.7 342.8,198 341.8,205.7 345.4,216.6 344.3,220.9 339.8,222.8 336.4,220.3 336.4,233.5 336,242.5 333.9,243.2 
		325.9,242.1 321.2,243.4 321.4,247.2 314.8,248.7 309.5,245.1 307.6,249.4 304.3,250.2 299.2,248.5 297.7,244.6 289.4,241.7 
		282.5,244.6 278.7,248.5 282.7,253.4 283.6,258.3 281.5,260.3 271.2,255.8 259.2,251 246.6,240.8 226.7,233.5 215.6,231 
		201.5,227.7 187,220 182.3,218.6 182.2,216.2 184,215.8 187.6,202.3 188.9,188.2 187.8,174.7 177.8,167.7 175.6,162.7 175,156.8 
		173.1,149.9 174.6,143.5 173.7,137.3 166.6,131.8 166.4,128.7 172,123.8 	"/>
	<text transform="matrix(1 0 0 1 134.5542 203.3091)" class="st1 st2 st3">DOMAR</text>
	<text transform="matrix(1 0 0 1 240.2773 160.9575)" class="st1 st2 st3">DIMLA</text>
	<g>
		<text transform="matrix(1 0 0 1 232.5723 210.1694)" class="st2 st4">NILFAMARI</text>
	</g>
	<circle class="st5" cx="218" cy="202.2" r="8.1"/>
	<g>
		<text transform="matrix(1 0 0 1 215.6514 207.0737)" class="st2 st6">1</text>
	</g>
</g>
<g id="upa-ran-NILFAMARI_2">
	<path class="st7" d="M92,271.6l-5.6,5.3l-4.1,5.1l0.9,5.6l-1.3,1.5l-0.6-3.8l-2.1,1.3L80,293l1.7,3.2l-1.3,2.3l-2.8,0.4l-3.4-3.4
		l-4.9,1.5l-0.4,1.5l-0.2,2.6l-5.1,3.9l-1.7,3.2l1.9,8.3l4.5,5.8l2.3,9.8v3l-2.4,2.6l-0.4,7.7l1.1,1.9l2.8,4.9l0.2,10.1l-2.1,3.2
		l-2.6,1.9l0.9,3l4.7,1.1l3,3.9c0,0,1.7-0.2,1.7-0.4c0-0.2,0-5.1,0-5.1l4.5-0.8l1.9,1.9l5.3,0.8l4.1-1.9l4.9,5.1l6.2,0.2l7.1,7
		l1.3,3.9l-2.6,6.4l0.4,2.8l2.8,9.4l4.3,7l3.8,8.3l2.4,10.7l1.5,2.4l-0.4,4.3l4.3,0.8l1.5,3l-0.9,7l-3.2,3.8l3,6.2l0.6,5.8l-0.8,9.8
		l0.4,2.3l2.8,0.9l5.8-2.1l5.3,2.3l0.2,3.2l-0.9,2.6l1.1,1.1l3.6-5.4l0.2-1.3l3.8,2.8l1.7-0.6l0.6-5.4l4.9-1.5l1.3,2.3l5.3-1.1
		l1.3,1.5l7-6l-1.9-6.2l5.1-10.5l8.1-0.8l0.9-3l5.1-0.4l5.1,2.3l0.4,3.4l4.1-1.1l0.9-2.3l-0.8-3.2l-3-0.4l0.6-2.4l6.6,0.4l4.5,0.2
		l-0.6-6.4l0.2-3.4l2.1-0.9l6.2,3.6l4.1,2.8l3.4,1.9l1.1-0.6l-0.8-3.4l3.2-1.5l4.1,2.6l1.3-0.8l-3.2-5.3l-4.1-6.2l2.6-2.6l0.8-3.2
		l1.1-0.9l-2.3-1.7l0.9-7.5l2.1-3.2l3.4-15.8l2.3-9.4v-5.6l2.4-2.6l3,1.3l1.1-5.1l1.9-1.1l3.8-0.4l-0.4-1.3l-3-0.6l-0.8-0.9l2.4-0.9
		l-0.2-1.1l-3.8-0.2v-4.1l0.6-4.7l-4.3-3.6l-0.2-1.9l-4.3-3.6l-2.6,0.8l-3-3.4l-5.8,3.9l1.7,5.6l-1.5,0.9l-2.3-4.5l-2.8,0.2
		l-1.1-2.4l-1.3-5.6l-1.7,0.4l-3-0.8l-5.1-7.7l-8.1-3.2l-0.6-1.7l2.1-4.1l-3.9-3.8l-5.8-3.8l-2.6,0.4l-3.9,1.5l-3.2-1.5l-1.5-6.2
		l0.6-5.6l1.5-2.3l-0.4-1.1l-4.7,1.1l-4.5-5.6l2.1-6.8l3-2.1l-0.8-1.7l-3.9,2.1l-3.2-3.6l-0.4-1.5l6.2-2.3l0.9-3l-0.4-4.5l-4.5-1.9
		l-3.6,2.6L163,275l-0.8-3.2l-2.4-1.7l-1.1-2.4l-1.5,0.8L157,272l-1.3,3.4l-4.9,0.9l-8.5,1.9l-0.9,2.4l3,1.9l3.8-0.2l1.7,1.7
		l-0.6,1.7l-4.3,0.2l-4.7,1.5l-3.9-1.3l-2.8-3.2h-2.4l-0.6,3.9l0.8,3.9l-1.3,2.3l-3.4-0.9l-3.9-2.3l-2.1-5.1l-4.1-1.7l-3-2.6
		l-5.4-0.6l-5.6-6l-2.6-3.2L92,271.6z"/>
	<text transform="matrix(1 0 0 1 104.855 327.332)" class="st1 st2 st3">NILPHAMARI</text>
	<g>
		<g>
			<text transform="matrix(1 0 0 1 135.9463 374.5586)" class="st2 st4">NILFAMARI</text>
		</g>
		<circle class="st5" cx="122.6" cy="366.6" r="8.1"/>
		<g>
			<text transform="matrix(1 0 0 1 119.0259 371.4629)" class="st2 st6">2</text>
		</g>
	</g>
</g>
<g id="upa-ran-NILFAMARI_3">
	<path class="st8" d="M162.2,271.8l0.6,3.2l4.5,1.1l3.8-2.8l4.5,1.9l0.4,4.5l-0.9,3l-6.2,2.3l0.2,1.5l3.2,3.6l4.3-2.1l0.6,1.7
		l-3.2,2.1l-1.9,6.8l4.5,5.4l4.7-0.9l0.2,1.3l-1.5,2.3l-0.4,5.6l1.5,6l3.2,1.7l4.1-1.7l2.4-0.2l5.8,3.8l4.1,3.4l-2.4,4.5l0.9,1.5
		l7.9,3.2l5.1,7.7l2.8,0.8l1.9-0.6c0,0,1.3,5.4,1.3,5.6c0,0.2,1.3,2.6,1.3,2.6l2.6-0.4l2.4,4.7c0,0,1.7-0.8,1.5-0.9
		c-0.2-0.2-1.9-5.6-1.9-5.6l5.8-3.9l3,3.4l2.6-0.8l4.3,3.8l8.8,1.9l4.3-0.9l3.9,2.3l0.9-1.3l-1.5-3.2l-0.8-4.9l1.9-0.8l3.2,4.1
		l3.8-0.4l1.3-2.3l0.2-5.4l-3-5.4l-1.9-1.5l1.3-2.1l2.1,0.6l3.8,7.1l1.7,1.1l0.4-1.9l3.4-1.5l0.9,1.3l-2.1,1.5l0.4,6l6.8,0.2l2.3-3
		l-0.4-2.1l1.7-1.3l1.9,4.9l3.9-2.1l3.6,0.6l-0.4,4.9l3.9,3.4l10.3,2.6l6-0.6l5.4,5.1l3.6,0.4l3.2-3.2l2.4,1.7c0,0,7-0.8,7-0.9
		s7-4.7,7-4.7l3.8,0.2l5.3-1.5l3.6-2.3c0,0,3.4,0.6,3.6,0.6c0.2,0,4.7,4.3,4.7,4.3l3-0.4l3-2.8l1.9,0.4l2.1,1.3l4.1-0.8l0.4-1.1
		l-6.2-3.9l-5.8-6.6l-4.9-5.1l-2.3-4.7l-5.3-6.2l0.4-3l-3-8.6l-1.5-3.6l-2.3-3.2l-1.7-6.6l2.1,1.1l0.8-1.3l-7.3-7.7l2.1-2.8
		l-1.9-3.2l0.6-5.4l-2.4-4.1l-0.9-7l2.3-1.5v-2.8l-1.5-3.9l5.3-4.9l-7.3-9.6l-0.2-1.5l-1.5,0.6l-8.1-1.1l-4.7,1.3l0.2,3.6l-6.6,1.9
		l-5.3-3.6l-1.9,4.1l-3.6,0.8l-5.1-1.7l-1.5-3.9l-8.1-2.8l-6.8,2.8l-3.9,3.9l3.8,4.9l0.9,4.9l-1.9,2.1l-22.2-9.4l-12.8-10.3l-20.3-7
		l-24.6-5.8L187,220l-4.9-1.3v-2.3l-3.8-1.7l-1.7,1.1v11.6l-2.1,2.1l-3.2,7.5l0.4,6.2l-8.3,4.3l0.2,3.8l3.9,3.8l-2.1,3.9l-1.1,6.6
		l1.9,2.1l-0.2,1.5l-3.4,2.6H162.2z"/>
	<text transform="matrix(1 0 0 1 229.2988 278.3921)" class="st1 st2 st3">JALDHAKA</text>
	<g>
		<g>
			<text transform="matrix(1 0 0 1 232.5723 304.2852)" class="st2 st4">NILFAMARI</text>
		</g>
		<circle class="st5" cx="219.3" cy="296.3" r="8.1"/>
		<g>
			<text transform="matrix(1 0 0 1 215.6514 301.1895)" class="st2 st6">3</text>
		</g>
	</g>
</g>
<g id="upa-ran-NILFAMARI_4">
	<polygon class="st9" points="231,434.7 226.5,427.7 229.1,425.2 230,421.8 231,421 228.9,419.3 229.7,411.6 231.9,408.5 
		237.4,383.4 237.5,377.7 239.8,375.2 242.7,376.4 243.9,371.5 246,370.2 249.4,369.7 249,368.5 246.2,368 245.6,367 247.9,366.1 
		247.5,365.2 244,364.8 244,360.7 244.3,356 240.2,352.3 240.1,350.6 248.7,352.6 253.2,351.6 256.9,353.7 258.1,352.6 256.4,349.4 
		255.8,344.5 257.7,343.8 260.7,347.9 264.4,347.3 265.9,345.3 266.1,339.8 262.9,334.4 261.2,332.9 262.6,330.8 264.8,331.4 
		268.2,338.3 269.9,339.4 270.6,337.7 273.8,336.4 274.6,337.6 272.7,339.1 273.1,344.9 279.7,345.3 282.1,342.3 281.7,340.2 
		283.4,339.1 285.3,343.8 289.2,341.7 292.8,342.3 292.4,347.1 296.4,350.5 306.9,353.1 312.7,352.6 318,357.7 321.9,358 325.1,355 
		327.4,356.5 334.1,355.8 341.5,350.9 345,351.1 350.3,349.4 352.2,352.6 352,356 348.2,364 346,370.4 345,372.7 343.2,374.2 
		340.3,373.1 339,374.4 343,377 346.2,376.4 346.5,377.4 343.5,381.9 346.5,382.3 345.6,388.7 344.3,390.3 345,392.2 346.7,392.6 
		344.5,398 342,399.5 344.3,406.1 347.8,406.3 349.7,408.8 349.9,411.4 352,412.1 352.9,415.7 357.1,415.1 356.1,418 345.4,424.5 
		344.8,428.5 345.8,432 344.7,433.9 340.9,435.2 340.7,438.8 344.1,442.4 343.9,445.2 340.1,447.6 335.1,447.6 333.4,451.8 
		334.1,459.5 334.5,462.5 336.6,464.4 335.6,466.4 333.2,464.9 330.2,466.6 328.5,465.5 330.2,462.7 327.4,461.4 323.2,458.3 
		322.1,459.5 316.3,458.7 312.5,458.7 307.8,461.5 306.9,464.5 302.2,469.6 301.1,473.2 299.4,475.8 296.8,477.1 295.8,476.2 
		297.1,473 294.7,473.2 289.4,471.9 286.2,473.2 276.5,473.6 274.6,472.8 271.6,474.9 268.8,471.7 269.1,469.2 267.4,468.9 
		266.1,470.6 263.3,470.2 260.5,472.8 259,471.3 261.2,469.2 258.2,467.7 256.2,461.5 256.4,459.3 251.9,459.1 251.1,456.5 
		253,455.3 258.1,455.2 259.6,453.7 257.9,449.1 255.6,446.7 255.8,442.6 249.8,440.1 251.1,438.4 250.3,436.9 248.5,438.2 
		244.2,436.2 237,435.4 232.3,434.1 	"/>
	<polygon class="st9" points="143.8,483.1 143.8,496.1 145,497.4 147.8,497 148.9,499.3 147,500.8 148.9,505.3 150.8,507.9 
		154.4,508.3 158.5,512.6 162.1,511.7 168.8,512.1 169.4,514.7 171.1,514.1 171.6,511.9 173.1,511.5 174.5,515.3 175,522.8 
		177.5,523.3 177.6,524.5 175.4,527.1 176,529 178.8,530.7 178,535 176.7,538 177.6,539.7 180.3,539.1 180.8,542.7 187.4,542.9 
		192.7,543.3 195.9,541.9 195.5,540.6 192.3,538.6 189.5,539.9 187.4,538.9 188.9,536.1 189.7,533.3 191.5,532.4 193.6,533.1 
		192.7,536.9 197.2,539.3 199.6,538.8 199.3,537.1 203.2,537.1 204.5,539.1 205.3,542.5 206.2,542.7 207.3,540.3 208.3,542.3 
		210.3,541.9 210.7,543.1 209.6,544 211.5,545.9 213.2,544.8 215,545.3 213.7,542.5 214.3,541.2 215.8,541.4 216.2,545.3 218,545.5 
		221,541.6 221.2,539.5 223.3,537.8 223.7,540.8 227.1,541.4 228.9,540.4 228.7,538 228.7,533.9 228,530.9 226.3,530.9 226.7,528.4 
		221.8,528.6 220.7,527.1 221.4,522.2 220.1,520.9 217.7,520.2 218,518.7 220.9,519 222,518.1 222.2,516.2 220.7,515.3 222.2,509.6 
		224.4,507.8 230.6,507.4 232.5,505.3 233.1,503.2 234.4,502.7 234.6,500.8 230.8,500.2 230.6,498.4 233.4,497 233.1,494.4 
		230.4,493.5 230.8,490.7 229.7,487.1 228.4,486.7 225.4,489 223.3,488.4 222.5,486.7 219.5,486.7 220.5,483.3 225.4,480 
		227.8,481.5 230.2,480.3 230.1,477.9 231.8,477.9 233.3,479.6 236.6,478.3 240.8,480.7 243.2,482.6 248.1,483 253.4,483 
		253.9,480.3 256.9,478.1 260.1,479 264.1,478.4 265.4,479.8 268.2,479.8 269.7,478.4 268.4,477.3 268.9,476 271,476.9 271.8,474.7 
		268.9,471.5 269.1,469.1 267.4,468.9 265.9,470.4 263.3,470.2 260.5,472.8 258.8,471.1 261.2,469.1 258.4,467.7 256.2,461.4 
		256.4,459.3 251.9,459.1 251.3,456.5 253,455.3 258.1,455.2 259.4,453.7 257.9,449.1 255.6,446.7 255.6,442.6 249.8,440.1 
		251.1,438.4 250.3,437.1 248.5,438.2 244.2,436.2 237,435.4 232.1,434.1 230.8,434.7 233.6,438.9 232.7,439.8 228.2,437.5 
		225.5,438.7 225.7,442 224.7,442.7 216.7,438.1 211.1,434.7 209,435.6 208.6,439 209.2,444.8 198.1,444.6 197.6,447.1 200.6,447.5 
		201.5,450.5 200.7,452.8 196.2,454 195.7,450.6 190.8,448.4 186,448.8 184.8,451.8 176.9,452.5 172,462.9 173.7,469.2 166.8,475.3 
		165.3,473.8 160.4,474.9 158.7,472.6 154,474.3 153.4,479.4 151.7,480 148,477.7 147.7,478.8 144.4,483.7 	"/>
	<text transform="matrix(1 0 0 1 267.6758 401.3711)" class="st1 st2 st3">KISHOREGANJ</text>
	<g class="st10">
		<text transform="matrix(1 0 0 1 189.5601 472.4805)" class="st5 st2 st3">SAYEDPUR</text>
	</g>
	<g>
		<g>
			<text transform="matrix(1 0 0 1 256.4141 429.7734)" class="st2 st4">NILFAMARI</text>
		</g>
		<circle class="st5" cx="243.1" cy="421.8" r="8.1"/>
		<g>
			<text transform="matrix(1 0 0 1 239.4941 426.6777)" class="st2 st6">4</text>
		</g>
	</g>
</g>
</svg>
