<?xml version="1.0" encoding="utf-8"?>
<!-- Generator: Adobe Illustrator 22.1.0, SVG Export Plug-In . SVG Version: 6.00 Build 0)  -->
<svg version="1.1" id="Layer_1" xmlns="http://www.w3.org/2000/svg" xmlns:xlink="http://www.w3.org/1999/xlink" x="0px" y="0px"
	 viewBox="0 0 400 600" style="enable-background:new 0 0 400 600;" xml:space="preserve">
<style type="text/css">
	.st0{fill:#19A95C;stroke:#FFFFFF;stroke-width:0.75;stroke-miterlimit:10;}
	.st1{fill:#FFFFFF;}
	.st2{font-family:'MyriadPro-BoldCond';}
	.st3{font-size:15.4625px;}
	.st4{opacity:0.5;}
	.st5{font-size:11.005px;}
	.st6{font-size:25.0267px;}
	.st7{fill:#009966;stroke:#FFFFFF;stroke-width:0.75;stroke-miterlimit:10;}
	.st8{fill:#00CC99;stroke:#FFFFFF;stroke-width:0.75;stroke-miterlimit:10;}
</style>
<g id="upa-ran-thakurgaon_1">
	<path class="st0" d="M161.1,239.6l-2.7-9.6l-1-11.7l3.7-8.4l3.7,1l2-4.7c0,0,2.7,0,2.5-0.2c-0.2-0.2,0.4-7.2,0.4-7.2v-6.5l1.6-0.4
		l-2.5-3.9l-1.4-4.5l-1.2-4.5l1-0.6l3.5,1l4.5-2.3l2-6.1l6.5-1l0.8-2.9l2.7-0.6l4.5,0.4v-1.4l-5.1-0.8l0.6-1.6l3.7-4.1l5.7-5.1
		l1.8-2.7l-0.8-1.4l-7.2,2l-4.3-0.8l1.4-6.3l-2.7-1.8L181,143l-1.8-2l5.1-5.7l8.2-8.2l0.8-7.4l4.3-2.5l6.1-8.4l2.9-3.1l5.1,0.6
		l2.5-2l0.8-3.9l-0.4-6.1l1.4-1.4l7,1.2l3.1,1.6l1.8,1.8l5.3-1l-1.6-1.8l-0.8-3.7l5.3,0.6l2.3,2l3.5-1.4l5.3,2.7l-1.6,1.6l1.2,0.8
		l3.1-2.3l4.9,1.4l3.9-0.8L263,97v2.7l5.9,0.4l0.6-1.6l-1.4-1.2l0.2-1.6l1.2-0.6l1.6,1.6l1.6,0.6l0.8-1.4l-2.5-1.4l-0.6-1.8l3.5-0.2
		l4.3-1l10.4,0.8l4.7-0.6l5.3,2.7l4.3,0.2l1.2,5.1l0.6,6.1l0.8,4.1l2,0.2l2.7-2.3l1.8,0.6l2,2.7l1.4-0.6l0.4-3.9l4.1-2.5l2.3-1.2
		l0.6,1.2l-0.4,2.9l-2,1.6l0.8,1.6l2.7,1h3.1l2.7,1.4l2.5,0.4l0.2,0.8l-2.3,3.5l0.6,2.9l2.5,2.3l1,1.4l-2,1.4l0.8,1.2l2.7-0.6
		l1.6,1.6l-0.6,2l2.3,2l1.4-0.6l3.1,1.8l3.1,4.5l3.7-0.2l5.5-0.4l5.3,3.7l8.8,7.2l0.4,3.1l3.1,3.3l3.9,7.6l2.5,2.3l0.8,3.7l2.5,1.8
		l-0.2,6.5l1.4,0.2v-1.4l1,0.2l0.4,7.4l-1.4,1.8l-1.8,0.8l-3.1,0.6l-0.6,3.9l1.6,1.8l-3.3,2.7l1,2.5L375,197l-0.8,2.5l-2.9,1
		l-4.5-5.7l-0.6,0.8l2.3,4.1l-2.9-0.6l-4.3,4.1l-1.6,1.2l1.6,2.5l-0.8,4.5l2,3.5l-0.4,1.8l-5.7,1.8l-2.9,0.4l-2.9,4.1l1.6,1.4
		l-1.8,1.2h-1l-1.2,1.4l-5.1-0.4l-5.1-0.6l-2.5-1l-0.8-3.1l-3.5-0.8l-5.9-1.2l0.6,2.3l6.1,0.6l0.8,1.2l-1.6,0.6h-1.4l-1.8-1
		l-0.4,1.6l-1.4,0.4l-0.2-1.4l-1.2-0.4l-1.2,2.9l2,0.8l-0.8,1.2l-2-0.2l-2.7-1.6l-0.8,2.9l-2,5.9l1.6,1.6l-0.4,3.7l-1-0.4l-1.8,1.6
		l0.8,2.7l-3.5,0.2l-3.1,0.6l-1,3.5v4.9l-0.2,3.5l1.2,1.8l1.2,4.1l2,1.2l1.6,1.6l0.2,4.9l-1.6,3.5l1.4,1.6l-1.2,0.8l-3.3-1.2
		l-3.9,0.4l-1.6-0.4l-1.4,3.5l-1,1.2l-0.2,2.3l-0.8,0.6l-2.3-0.6l-1.6,3.3c0,0,0,2.3-0.2,2.3s-2.5,1.8-2.5,1.8l1.8,1.2l0.2,5.3
		l-0.6,2.7l-1.6,1l-0.6-1l0.6-1.4l-0.6-1.8l0.4-1.8h-2.9l-0.8-1l-1,0.4l-2.7-0.6l-0.6,2.5l3.1,0.6h2.9l-1,2.3l-0.6,1.2l-4.7-1
		l-2.7,0.6l-3.1-0.8l-4.9,5.5l-1.6,0.6h-2.3l-0.6,1.8l-1.8-1l-1.6-1.6h-3.1l-2,0.6l-3.3-1.2l-0.2,4.5l-2.7,3.5l-1.4,1l-1.6-0.8
		l-0.4-8.8l2-5.3l2.9-3.1L253,290l-1.2,1.4l-1.6-1.8l0.2-3.1l0.6-2.5l-2.5,1l-0.2-1.2l3.1-2.3l1.2-0.2l0.6-1.6l3.9-3.7v-2.5
		l-6.8-0.4l-1.2-1.6l-4.7,3.9l-2.9-2.5l-1-2.7l-1.2-2.9l-3.9-0.4l-1.8-1.4l-0.8,1.8l-2.9-0.6l-3.1,0.8l-3.1,0.6l-3.1,5.7l-3.1,1.4
		l-2.3-1l-1.8,0.2l1.4-4.5l0.2-1.8l-1.2-0.6l-1.6,4.1l-1.4-0.8v-1.8l-1.6-0.8l1.2-2.7l2-1.2l-2.5-3.9l-4.7-3.1l-2-1.8l-2.7,1.8
		l-3.5,5.1l-2.9-4.7l-5.5-1.4l-2-0.6l-0.4-2.9l-3.5,0.6l-2.9-1.8l1-3.9l-0.4-1l-2.7-0.2l-0.2-4.7l-4.1-1.4l-2-0.6l-0.4,1.4l-1.6,2.7
		l-5.9-0.2L161.1,239.6z"/>
	<circle class="st1" cx="231.9" cy="154.5" r="8.4"/>
	<g>
		<text transform="matrix(1 0 0 1 228.1602 159.4336)" class="st2 st3">1</text>
	</g>
	<g class="st4">
		<text transform="matrix(1 0 0 1 232.3066 221.5259)" class="st1 st2 st5">THAKURGAON</text>
	</g>
	<g>
		<text transform="matrix(1 0 0 1 248.2354 162.999)" class="st2 st6">THAKURGAON</text>
	</g>
</g>
<g id="upa-ran-thakurgaon_3">
	<path class="st7" d="M290.5,299.6l1.2,6.8l-0.6,4.3l-2.3,1.4l-2.5-0.4l-1.8-2l-2.3,1.6h-2.9l-3.7,0.6l-1.6,1.8l0.4,4.1l1.8,4.3
		l0.4,1.4l-1.2,0.8l-1.6-1.8l-1.8-0.6l-0.4,1.4l1.2,1.4l2.3,1.4l1.8-0.4l1.6-0.8v1.6l-1.2,1v2.3l0.2,2.7c0,0-0.6,0.8-0.2,1.4
		c0.4,0.6,1.4,2.3,1.4,2.3l-1.6,2.3l0.6,1l-0.6,1.2l-2.5-0.6l0.2,2l-2.3,0.6L270,343l-3.1-1l-1.8-3.9l0.2-3.9l-3.3-0.8l-0.2,4.7
		l-0.6,5.5l-1.6,0.8l-2-1l-0.2,1.8l-1.8,0.6l-0.8-2.7l-4.1-0.6l-0.2-3.1l-0.4-3.9l-4.5-0.8l-0.8,1.6l1,2.9l-0.8,0.8l-1.6-1.2l-1,0.2
		l-1.8-3.1H236l-2.7,0.2l-0.4,1.4l3.1,2.9l2.3,3.3l-0.6,2.7l-2.3,1l-3.5-4.7l-1.4-0.6l-2.3,0.2l-0.2-1l0.6-2l-1.8-1.8l-2.3,1.6
		l-1,4.5l0.2,3.5l-2,5.3l-0.2,4.7l-2,1.8l-3.5-0.2l-2.9-0.8l-1.4,1v4.9l1,2.3l-0.6,3.9l1.6,5.9l1,3.5l-0.2,2.3l-1.8,0.8l-1.2,0.2
		l0.2,1l2,1.4l-1.6,6.1l-0.6,1l-2.5-0.2l0.8,2l0.2,2.9l1.6,2.3v8.4l1,4.1l-1,3.1l1.8,1.6l-1.2,3.7l0.6,1.6l2.7,2.3l0.2,2.7l-1.4,1.8
		l2.5,3.1l3.1,0.8l0.2,2.7l0.6,4.9h5.7l-0.4-3.1l2.9,0.2l-1.2-3.5l2-0.2l2.9,2.5l0.6,3.1l1.2-0.2l0.6-1l4.9,1.4l-2.5,4.5l0.6,1.8
		l2.7-0.2l2.3-0.6l0.8,3.5l-4.3,1.2l-4.1,1.2l-1.2,2.3l1.2,2.5l4.3-1.4l3.5,0.2l1.6,2.3l-1.2,3.1l-2.5,1.2l0.6,2l2.3,2.5l1.2,2.7
		l-1.4,2.5l-1.6-2h-2.5l-0.8,3.7l-2,3.1l0.2,2.7l2.9,0.8l-1.6,2.3l-2,1.6l-3.3-0.2l-1.8,1.8l-2.5-0.6l-3.3-2h-5.1l-1.4-3.3l3.1-3.9
		l0.4-3.1l-3.3-1.2l-5.3,2.3l-1.6-1.2v-2.5l1.4-3.3l-4.1-1l-3.3-1.4l-5.5-0.2l-1.4-3.9l0.8-3.9l-0.6-1.6l2.9-1.6v-4.1l-2.9,0.8
		l-3.1-0.8l-1.4-2.9l-3.9-0.4l1.2-3.9l-3.3-1l-3.5-0.4l-3.3-0.2l-1.2-2.5l-0.6-2l-3.3,0.6l-3.5-1.4l-3.3-0.6l-3.1-0.6l-1.2-5.3
		l-0.8-5.3l-9-4.5l-2.5-2l-1.6-2.7l-5.1-2l0.6-3.5l-2.3-1.2l-4.3-0.6l-1.8,0.4l-6.1-5.9l2-3.9l0.8-6.8l-1-7l-5.7-3.9l-2-1.4l2.7-1.6
		l1.6-4.9l-1.4-2l0.2-2.9L129,362l-1.8,2.5l-2.7,0.6l-0.8-5.7l-0.2-2.5l2.7-5.3l3.9-1.8l4.3,0.8l3.9-1l2-1.8l3.5,1l3.3-1.4l2.5-5.3
		v-2.7l1.4-0.2l5.3,1.8l1.4,0.6l0.6-1v-1.4l1.2-3.3l1.6,0.4l0.2-2.7l-0.8-1l2.5-3.9l0.6-3.3l1.2-1.4l0.6-2.7l2.3-0.2l1.4,1.2
		l0.6-0.4l-0.2-4.5l-0.8-2.5l1.2-0.4l0.6-1.4l2.9,0.4l1-2.3l-1.4-3.7l-0.8-3.1l1.4-3.7l-2.3-4.7l0.4-2.3l-0.6-0.8l0.6-3.1l2.9-2.7
		l0.8-4.3l-1-1.6l1.2-0.2l0.8-2.5l-0.4-1.2l0.6-8l-1-1.6l0.8-0.8l1.8,1l1.4-0.6l2-0.2l2.5-0.8l0.6-2.3l1.4-0.6l0.4-1.2l-0.4-2.5
		l0.6-4.1l7.4,2l2.9,4.5l3.5-5.1l2.7-1.6l2,1.8l4.7,3.1l2.3,3.7l-1.8,1.6l-1,2.5l1.2,0.8l0.2,1.8l1.4,0.8l1.6-3.9l1.2,0.4l-0.2,1.8
		l-1.4,4.5l1.8-0.2l2.3,0.8l3.1-1.4l3.1-5.5l6.1-1.4l2.9,0.6l0.8-1.6l1.8,1.2l3.7,0.4l2.5,5.3l2.7,2.7l4.9-3.9l1.2,1.6l6.5,0.4
		l0.2,2.5l-3.7,3.7l-0.8,1.6l-1.2,0.2l-3.1,2.3l0.2,1.2l2.5-0.8l-0.6,2l-0.2,3.3l1.6,1.8l1.2-1.4l4.1,4.3l-2.7,3.1l-2,5.3l0.4,8.8
		l1.6,0.8l1.4-1l2.7-3.5l0.2-4.3l3.3,1l2-0.6h3.1l1.6,1.6l1.8,0.8l0.8-1.6h2l1.6-0.6l4.9-5.5l3.1,0.8l2.7-0.6L290.5,299.6z"/>
	<g class="st4">
		<text transform="matrix(1 0 0 1 197.8457 324.9375)" class="st1 st2 st5">PIRGANJ</text>
	</g>
	<circle class="st1" cx="167.4" cy="361.9" r="8.4"/>
	<g>
		<text transform="matrix(1 0 0 1 163.7324 366.8887)" class="st2 st3">3</text>
	</g>
	<g>
		<text transform="matrix(1 0 0 1 183.8086 370.4541)" class="st2 st6">THAKURGAON</text>
	</g>
</g>
<g id="upa-ran-thakurgaon_2">
	<path class="st8" d="M202.9,109.9l-4.5-3.1l-4.3,0.8l-5.5-2.7v-3.1l-4.7-1.4l-1.4,2.5l-3.3-0.2l-2.7,2.5l-1.6-0.8l3.7-4.9l-3.9-3.3
		l-2-3.5l-4.7-2.7l-5.9,0.6l-2.5,2l-1-1.6l-1.6,1l-0.6,2l-2.5-0.6l-2.3-0.4l0.8-1.6h-2l-2,2.9l-0.6-1.6l-1.8,1l-0.4,2.7l-2.7,0.2
		l-2.5,4.5l-4.5,1.4l-4.7-2.3l-4.5,1.4l-4.7-1.2l-5.9,2.9l-3.5,1.8l1.8,4.3l-2.9,3.7l-2.5-1l-2.3,0.8l2,1.8l-3.9,2.3l-3.1-0.2
		l-1.2-3.5l-2.7,2.3l2.9,3.7l-4.5,2.7l-5.9,0.6l-1-3.9l-2.3,1.2l0.2,2.5l-2,1v1.4l2.7,1.2l-1,2l-3.3-2.7l-4.3,1.6l-2,2.3l-3.1,3.3
		l2,3.7l-2.3,5.9l-1.6,1.4v2.3l3.5,2.7l-4.5,5.3l1.2,2.5l-1.6,2.9l-4.7,0.4l-1.6,1.8l-0.2,2.5l1,1l-3.5,2.5v3.9l2,2.5l2.3-0.4v2.5
		l-3.5,1.6l-1.6,3.7l2.7,1.6l3.7-3.5l2-1v3.3l2,2.7l6.5,1.6l0.4,1.8l-0.8,2.7l2.5,1.6l-2.9,3.3l-3.1,0.4l0.8,7l0.2,2.7
		c0,0-1.6,0.2-1.4,0.2c0.2,0-0.8-1.8-0.8-1.8l-2.5-0.2l-1.4,3.1l3.1,2.7l0.2,2l-2.5,1.2l0.6,3.7l3.1,0.8l2.9-0.4l1.6-0.6l2.7-1.4
		l1.6-2l5.1-1.2l3.1-1l0.4-2.3l-0.8-2l3.3-2l1.2-2.7l1.8,2.7l2.5-2.5l0.4-2.7l3.5-1l1.6,2.9l2.7-0.6l0.2-3.3l2.9,1.8l1.6-0.2
		l1.4,2.9l-2.3,2l0.4,5.3l2,1.8l4.9,2.5l-1,4.3l-3.5,4.1l0.6,2l3.9,3.3l2.3,1.2l2-1.8l4.5,0.2l2.5,1.8l4.1-4.3l2.7,1.6l1.2,1.4
		l-1.4,4.9l-2.7,3.5l0.2,3.5l-1.6,1.8c0,0,2.7,4.3,2.7,4.5c0,0.2,1.8,2.7,1.8,2.7h5.7l4.3-1.2l1.8,1.2l2.7-3.3l-0.4-3.9l4.3-2.3
		l6.3,1.4l-3.1-10l-0.8-11.3l3.7-8.4l3.7,1l2-4.7l2.3-0.2l0.8-7.4v-6.3l1.2-0.6l-2.3-3.7l-2.7-9l0.8-0.4l3.7,0.8l4.7-2.3l2-6.3
		l6.5-1l0.6-2.7l2.7-0.6l4.7,0.4l-0.2-1.4l-5.1-0.8l0.6-1.6l4.1-4.5l5.3-4.5l1.6-2.9l-0.6-1.4l-7.4,2l-3.9-0.8l1-6.3l-2.7-1.8
		L181,143l-1.6-2l5.7-6.5l7.4-7.4l0.8-7.4l4.5-2.5L202.9,109.9z"/>
	<path class="st8" d="M45.3,240.4l1-1.6l3.7,2.7l1.6-0.4l1.4-2.7c0,0,0-4.3-0.2-4.5c-0.2-0.2-2.7-3.5-2.7-3.5l1.2-2l4.1,1.2l0.8-1.4
		l-0.4-1.6l2.9-1.2l4.3,0.8l2.3,0.4l2.7-3.1l5.9,0.4l2.9-0.2l1.6-1.8l0.2-3.3l-1.8-2l3.5-1.6l2.3-2.7l4.9-1l3.1-1l0.2-2.5l-0.6-2
		l3.3-1.6l1.2-2.7l1.8,2.5l2.5-2.5l0.4-2.7l3.5-1l1.6,2.7l2.5-0.4l0.4-3.3l2.9,1.6l1.6-0.2l1.4,3.1l-2.3,2l0.4,5.1l2,1.8l4.9,2.5
		l-1,4.5l-3.5,4.1l0.6,2l3.9,3.3l2.3,1.2l2.3-1.8l4.1,0.2l2.7,1.8l4.1-4.3l2.7,1.6l1.2,1.4l-1.4,4.9l-2.7,3.5l0.2,3.3l-1.4,2
		l2.5,4.5l2,2.7h5.5l4.3-1.2l1.8,1.2l2.7-3.5l-0.4-3.7l4.3-2.3l6.1,1.2l2.5,4.5h5.9l1.6-2.7l0.4-1.6l6.1,2.3l0.2,4.7l2.5,0.2l0.6,1
		l-1,3.9l2.9,1.8l3.5-0.6l0.4,2.9l-0.4,4.1l0.6,2.5l-0.8,1.4l-1.4,0.4l-0.4,2.3L182,267l-2.5,0.2l-1,1l-2-1.2l-0.6,0.8l1,1.6l-0.8,8
		l0.4,1.4l-0.8,2.3h-1.2l1,1.8l-0.8,4.5l-3.1,2.5l-0.4,3.3l0.6,0.6l-0.2,2.3l2,4.9l-1.4,3.5l0.8,3.1l1.4,3.9l-1,2l-2.9-0.4l-0.6,1.4
		l-1.2,0.4l0.8,2.7l0.2,4.5l-0.6,0.2l-1.2-1.2l-2.5,0.4l-0.6,2.5l-1.2,1.4l-0.6,3.3l-2.3,4.1l0.6,0.8l-0.2,2.7l-1.4-0.4l-1.4,3.3
		v1.6l-0.6,1l-1.4-0.8l-3.1-1l-2-0.8l-1.6,0.2v2.9l-2.5,5.1l-3.1,1.6l-3.5-1.4l-2.3,2l-3.9,1l-4.5-0.8l-3.9,2l-2.5,5.1l0.2,2.9
		l0.8,5.1l2.7-0.2l1.8-2.7l1.2,2.9v3.1l1.2,2l-1.6,5.1l-3.3,1.4h-5.1l-2.3,3.3l-2.5-1.8l-3.3-1l-0.4-1.2l1.4-1.4l-1.4-1.8l2.9-1.2
		l1.4-1l-2-1.4v-2.7l-2-0.2l0.2-1.8l-3.1-3.1l1.2-2.3l-0.2-2.3l-1.6,0.2l-2.5,3.3l-1.8,1.2H102l-2,1l-3.7-0.4l-2.9,2.9l-1.4-1.2
		l1.4-1.2l-3.3-4.3l-1.4-1.2l-1.8-0.2l0.6-6.1l-2.5-0.2l1.2-1.8l-0.8-1.2l-2.3,1.4l-2.3-0.6l2.3-3.9l0.6-2.7l-2.9-2l3.3-3.1
		l-1.6-2.3l0.4-1l1.8,1.4l-1.2-3.5l3.3-1.6l3.5-1.6l1-4.3l-3.3-0.2l-3.5-0.4l-2.3-3.5l-0.4-1.4l1.6-1.4c0,0,0-3.9,0.2-4.1
		c0.2-0.2,1.6-3.1,1.6-3.1l0.6-3.5l-3.7-1l-2.9,0.2l-1.4-0.8l-2.9-4.5l1.2-5.1l2.9-0.4l1.6-2.3l4.1,0.6l2-1.2l2.7-5.5l-2-3.3
		l-3.7-2.7l-1.2-5.1l-1.4-4.7v-2.3L79,265l-2.7,0.8l-0.6,4.1l-2.7,2.5l-3.1-1l-3.5-1.4l-0.2-3.7l1.6-5.9l0.8-4.7l-2.5-3.5l2.3-4.3
		l-2-1.4l-3.3-1.2l-5.5,0.4l-5.3-0.6l-3.3-2L45.3,240.4z"/>
	<path class="st8" d="M45.3,240.4l-3.1,2.9L42,246l2.3,1.8l-1.8,3.1l-1.4,1l-0.4,2.3l1.4,1.2l-2.5,3.1h-1.8l-1.4,0.6l-1,2.5l1.2,1.4
		l2.9,0.6l-0.4,1.6l-2.9,1.4l-2,0.6l-1.8-0.2l-0.4,2.9l2.7,3.5l2.5,2.3v2.7l-2,2.3l-1.6,0.8l-2-0.2l-0.6,0.8l-0.6,3.7l-0.6,2.5
		l-0.6,0.6l-3.3,0.2l-2.7-1.8l-2.9,0.4l-2.9,3.3l-1.4,2.9l-0.2,2.3l-1.8,3.1l-1.4,2.9l1.2,1.2l2-1l0.6,2l1.8,0.2l-0.2,2.7l-1.8,1
		l-1,2.9l2,1.4v1h-1.4v2.5l2,0.8h3.1l2,2.7l-0.2,2.7l-1.2,2l-2.3,2.9l1.2,2l-0.4,0.6l-2,0.2c0,0,0,2.3,0,2.5c0,0.2,0.8,1,0.8,1
		l2.9-1.4l1.2,1.6v2.3l-0.8,3.1l-0.4,1.6c0,0,1.8,1.2,2,0.6s1-3.1,1-3.1l0.8-2.7l2-0.2l1.2,0.2c0,0-0.4,2.9-0.2,3.1
		c0.2,0.2-1,1.8-1,1.8l0.2,2.3l2,2.3l-0.8,2.7l-2,3.7l-2,0.8l-3.7,0.4l-0.2,2l1.2,1.6l3.3-0.2l1,1.8l-1.8,4.3c0,0-2,0-2.3,0
		c-0.2,0-1.4,1.4-1.4,1.4l0.4,2.3l1.8,0.4l2.3,3.5h2l-0.4,1.8l-2,2l1.6,1.8l2.9-0.4l4.3,2.3l-2.5,2.7l-1.4,4.5l0.2,2.5l2.5,0.8
		l5.1,0.4h7.6l3.1,2.5l1.6,1.6c0,0-0.2,3.5-0.2,3.7s-1.8,3.5-1.8,3.5l-0.2,1.4l1.2,0.6l2.3-1.6l1.2,0.2l-1.2,2.5l1,2l4.1-1.4
		l2.7-3.7l0.6-3.5l3.5-1.6l4.5,3.1l1.2-0.8l0.2-2.3l2-3.3l1.6,1l0.8-1l-1-1.4l2-0.4v-2.3l0.8-1.2l5.1-0.4l3.1,4.1l2.7,1.8v3.3
		c0,0,3.7,2.3,3.9,2.3c0.2,0,2.3-0.4,2.3-0.4l1-3.3l0.6-2.3l0.4-1.6l2.7-1.6l2,0.2l2.7,2.5l2.3-2l1.8,2.7l1.8-1l-1.4-2.3
		c0,0,1.6-2.3,1.8-2.5c0.2-0.2,3.3-2.5,3.3-2.5l0.8-1.6l1.6-1.8l-0.6-0.6l-1.8,0.2l-0.6-1.2l1.8-1.4l-1.4-1.2l0.2-1.6l2.5-0.8l2-0.6
		l1.6-1.2l-2-1.4v-2.7l-1.8-0.2l-0.2-1.8l-2.7-3.1l1-2.3l-0.4-2.3l-1.4,0.2l-2.5,3.3l-1.8,1.2h-3.7l-1.6,0.8l-3.9-0.2l-2.9,2.9
		l-1.4-1.2l1.2-1.2l-3.1-4.3l-1.4-1.2l-1.8-0.2l0.6-6.1l-2.3-0.2l1-1.8l-0.8-1.2l-2,1.4l-2.5-0.6l2.3-3.9l0.6-2.7l-2.7-2l2.9-3.1
		l-1.4-2.3l0.4-1l1.8,1.4l-1-3.5l6.5-3.3l0.8-4.3l-3.1-0.2l-3.5-0.4l-2.3-3.7l-0.4-1l1.6-1.6l0.2-4.1l1.6-3.1l0.6-3.5l-3.7-1
		l-2.9,0.2l-1.2-0.6l-2.9-4.7l1-4.9l2.7-0.6l1.8-2.5l3.9,0.8l2.3-1.2l2.5-5.5l-2-3.3l-3.5-2.7l-2.7-9.8v-2l-2.5-2.9l-2.3,0.8
		l-0.8,3.9l-2.7,2.5l-6.5-2l-0.2-3.9l1.6-5.9l0.8-4.7l-2.3-3.3l1.8-4.5l-1.6-1.4l-3.5-1.2l-5.3,0.4l-5.3-0.6L45.3,240.4z"/>
	<g class="st4">
		<text transform="matrix(1 0 0 1 129.1177 131.4761)" class="st1 st2 st5">BALIADANGI</text>
	</g>
	<g class="st4">
		<text transform="matrix(1 0 0 1 104.2729 306.3604)" class="st1 st2 st5">RANISANKAIL</text>
	</g>
	<g class="st4">
		<text transform="matrix(1 0 0 1 30.9116 323.4053)" class="st1 st2 st5">HARIPUR</text>
	</g>
	<circle class="st1" cx="150.7" cy="261.4" r="8.4"/>
	<g>
		<text transform="matrix(1 0 0 1 146.9814 266.3828)" class="st2 st3">2</text>
	</g>
	<g>
		<text transform="matrix(1 0 0 1 16.2979 268.6597)" class="st2 st6">THAKURGAON</text>
	</g>
</g>
</svg>
