<?xml version="1.0" encoding="utf-8"?>
<!-- Generator: Adobe Illustrator 22.1.0, SVG Export Plug-In . SVG Version: 6.00 Build 0)  -->
<svg version="1.1" id="Layer_1" xmlns="http://www.w3.org/2000/svg" xmlns:xlink="http://www.w3.org/1999/xlink" x="0px" y="0px"
	 viewBox="0 0 400 600" style="enable-background:new 0 0 400 600;" xml:space="preserve">
<style type="text/css">
	.st0{fill:#BCBB33;stroke:#FFFFFF;stroke-width:0.75;stroke-miterlimit:10;}
	.st1{fill:#FFFFFF;}
	.st2{font-family:'MyriadPro-BoldCond';}
	.st3{font-size:16.3863px;}
	.st4{font-size:11.6625px;}
	.st5{fill:#E0C500;stroke:#FFFFFF;stroke-width:0.75;stroke-miterlimit:10;}
</style>
<g id="upa-bhurungamari">
	<path class="st0" d="M252.2,190.1l1-0.9l-0.5-2.4l-1.2-0.5l0.9-1.7l-0.9-1.9l0.9-1.9l-1.4-0.7l-1.5,1.5l-0.7-1.5l2.4-3.6v-2.2
		l-1.9-0.7l-3.9,4.3l-0.9-0.9l0.7-4.4l1.9-2.6l-0.2-0.7l-2,0.2l0.3-1.4l1.7-0.5l-1.7-2.9l-2.2-0.3l-1.2,1.2l-2.2,0.3l-1-1.9
		l-2.4-0.7l-3.4,0.9l-0.2-2.4l2.6-2.6l2.2-3.8l0.3-3.4l-2.2-3.2l-3.4-1.2l-0.5-4.6l-1.9-3.6l-2.6-1.9l-4.6,0.5l-5.1,0.7l-1.9-0.3
		l-0.2-4.3l-1.4-1.5l-1.2-0.3l-2,3.1l0.5,1.9l-0.2,1.5l-3.2,2.9l-1.4-0.7v-2.4l-3.2-2l-4.1-0.3l-1.9-2.4l2.4-2.2l4.3,1l3.1-2
		l0.2-1.2l-4.8-1.4l-2.7-4.3l-1.5-3.6l0.9-2.2l-0.3-1.2l-2.7,0.5l-2-1l0.2-3.2l1.2-1.7l3.2,1.4l1.7-0.3l2.6-2.4l-0.7-1.2l-3.1,2.6
		l-2.6-3.2l-0.2-3.6l1.9,1.4h3.4l0.2-1.2l-2.7-0.5l1.4-1.4l-0.9-2.4l-1.2,1.7l-1-1.5l0.2-3.2l-0.5-1l-1.2,0.7l-0.3,2.2l-2.4,1.5
		l-0.2,1.9l0.7,0.9l-0.7,1.2l0.2,1.4l-1.2,0.2l-1.5-0.7l-2.2,1l-3.2-0.3c0,0-2.9-1.5-2.9-1.7c0-0.2-1.7-1.7-1.7-1.7h-1.5l-1.5-2.4
		l-1.5,0.9l-0.2,1.9l0.3,2.6l0.9,1.2l-1.7,2.2l0.2,2h2l0.7,2.9l0.3,2.2l0.9,0.5l0.3,1.9l2.2,1l1,1.7l-0.9,1.4l-0.3,1.7l-1.9-0.5
		l-2.2-1.4c0,0-1.2-1.5-1.2-1.7c0-0.2,0.7-1.5,0.7-1.5l-1.5-1h-1.4l-1.2,1.9l2.4,0.5l-0.2,0.9h-2.6l-0.3,2.7l2,1.2l2,0.9l0.2,1
		l-2.4-0.5l-1.7,1.4l-0.3,1.2l-0.3,1.9h-1.9l0.3-4.4h-2.6l-1.2,1.2l-1-0.9l-1.7-0.9c0,0-1,1-0.9,1s0.9,1.4,1,1.4s1.5,0.3,1.5,0.3
		l-1.2,1.4l0.3,1.7l0.7,1.4l1.5-1.2l1.5,0.2l-0.2,1.5h-2l-0.3,2l-1.5,0.2l0.2,1.7l1,0.5l-2,2.9c0,0-1-1-0.9-1.2c0.2-0.2,0.9-2,0.9-2
		l-1.4-0.7L161,139l-1.4-1.2l-0.2-1.2l-2.7,0.3l-2,1.5l0.7,1l2-0.3l1,2.4l-0.5,1.7v2.2l-0.7,1.5l0.7,1.2l0.5,0.2l-1,2l1.5,1.9
		l1.4,1.9l1.4-0.9l1.4,2l-0.9,1l-1.4-0.7l-0.7,1c0,0,1,2.7,1.2,2.9c0.2,0.2,1.4,0.3,1.4,0.3l1.4-3.6l0.9-2.4l1.4,3.2l1.7,0.9
		c0,0,1.9-0.3,1.9-0.7c0-0.3,0.2-2.9,0.2-2.9l1.5-1.2l1.2,1.5l0.5,3.1l-0.2,2.6l-3.1,2l-3.6,1.9l-2.2-0.9l-2.2,1.2l-0.7-0.7
		l-0.5-1.9l-1.9-0.9c0,0-1.2,1.2-1,1.2s1.7,1.7,1.7,1.7l-0.5,2h-1.5h-1.2l0.3,1.9l4.3,2.7l1.2,1l0.5,2.6l1.9,0.2l-0.5-3.8l0.9-0.9
		l0.9,1.2l1.5,0.2V170l-1.7-2.7l0.7-1.2l1,0.2l1.5,2.2c0,0,1.5-1.2,1.5-1.4s0.3-2.7,0.3-2.7l1.7-0.7l1.5,1.9l0.2,1.7l2.2,1.2l-2,1.4
		l0.5,2l2.9,0.9l0.2,0.9l-1.5,0.7l0.2,1.5l-1.5,0.7l0.2,1.5l1.9,3.6l2.9,1.5l3.4,3.6l0.7-1.5l3.6,2.4l1.4,2.9l1.4-1.7l3.1,1.5v3.9
		l1.5,2.6l-2.2,3.1v1.7l3.6,0.3l0.9-2.6l2.4,1.7l-0.3-2.2l3.6-3.6l4.1-1.5l0.7,2.6l2,0.5l-0.2,3.9l-0.7,3.4l3.2-0.2l1.7-1.7
		l-0.9-2.6l2.4-0.5l1.2,3.8l-0.7,2.4h2.9l3.4-4.3l6.1,0.3l2.6-0.2l0.2-2.4l3.1,0.2l0.9-6.8l2.7-1.2l1.9,2.6l-0.9,3.9l-2.4,3.6
		l0.5,2.4l2.7-0.2l1.7-2.2l1.5-2.6l2.2-1.5l2.9-1.7v-1.5l-1.5-0.3l0.3-2.4L252.2,190.1z M185.5,129.6l-0.5,2.2l-1.9,0.3l-1.4,3.4
		c0,0-4.3-1.2-4.3-1.4c0-0.2-0.3-2.9-0.3-2.9l-3.2-0.2l3.1-2.7l1.2-1.4l0.7-1.5l2.6,1l2.7-0.5l2.2,1.7L185.5,129.6z"/>
	<circle class="st1" cx="195.5" cy="169.1" r="8.9"/>
	<text transform="matrix(1 0 0 1 192.2686 173.9102)" class="st2 st3">1</text>
	<text transform="matrix(1 0 0 1 210.0391 175.5933)" class="st2 st3">KURIGRAM</text>
	<g>
		<text transform="matrix(1 0 0 1 166.6074 152.9434)" class="st1 st2 st4">BHURUNGAMARI</text>
	</g>
</g>
<g id="upa-nageswari">
	<path class="st0" d="M268.6,295.5l1.4-3.2l-0.2-5.3l2.6-4.1l3.1-3.4l1-3.8l2.6-2.4l1.7-2l1.4-2.9l2.4-2l3.2-3.6l1.9-2.4l0.5-2.9
		l1.5-3.8l2.4-4.1v-1.2l-1.5-1l-4.3,0.5l-4.6,1.4l-4.3,0.2l-2.4-0.2l-2,2l-2.6-0.2c0,0-0.5-0.3-0.5-0.5s1-1.7,1-1.7h-5.5l-2-0.9
		l0.7-4.3l1.4-0.3l6.1,2.6h1.7l0.5-1l-0.7-2.6l-0.3-2.2l-1.7-2l-1.7-0.7l1.9-2.6l1.9-0.3l3.2,1.5l2.7-0.3l6.5-2.4l0.2-3.1l-2.2-0.9
		l-2.2-1.2l-5.5-2.6l-1.9-2.6V220l-3.4-4.8l-2.2-1.9l-2.2,0.3l-0.7,4.3l1.7,4.9v2.6l1.4,2.2l-0.9,1.9l-4.4-0.5l-3.2-3.2l-1.2-3.1
		l1.7-0.9l-0.3-3.4l1-4.6l-2.4-4.3l0.7-3.2l-1.5-2.7l-0.2-4.3l-1.4-1.2l-2-1.7l-1.4,1.5l-0.5,4.4L252,208l-2.4,2.9l-1.5,0.5
		l-1.2-1.4l1.2-0.7c0,0,2-2.4,2-2.7c0-0.3,1.5-2.7,1.5-2.7l2-3.9v-1.4l-2.7-0.9l-1.4,0.9l-0.2,3.4h-1.7l-0.2-2.7l-2.7-0.5l-1.5,2.4
		l-1.4,0.7l-0.9-0.9l-1.5,2.2l-2.9,0.2l-0.5-2.2l2.4-3.6l0.9-4.1l-1.7-2.6c0,0-3.1,1-3.1,1.2S234,199,234,199l-3.1-0.2l-0.2,2.4
		l-2.4,0.2l-6.5-0.3l-3.1,4.3h-3.1l0.7-2.6l-1.2-3.6l-2.6,0.5l1.2,2.6l-2,1.9l-3.1,0.2l0.7-3.4l0.3-4.1l-2.2-0.3l-0.7-2.7l-4.3,1.5
		l-3.4,3.8l0.3,2l-2.2-1.7l-1,2.6l-3.8-0.2l0.3-1.9l2-2.9l-1.5-2.7v-3.9l-2.9-1.5l-1.5,1.9l-1.2-2.9l-3.6-2.4l-2.4,3.8h-3.9
		l-4.1-0.5l-2,3.4l-2.7,0.9l-2.2-3.1l-3.1-2.9l-1,1.2l3.2,3.4l0.3,2.7l-2.7,1l-3.4,2.6H157l-0.3,1.7l1,2.7l2.2,2l4.1,2.9l2,0.5
		l0.7,9.7l0.9,6.7l0.3,2.7l-0.9,1.7l-0.3,1.9l1.9,0.3l1.2,1.9l1,2.7l2-0.7l1,1.9l-1,1.2l-3.9-0.5l-0.9,1l2.4,0.9
		c0,0,1.4,6.3,1.4,6.7c0,0.3,2.4,4.8,2.4,4.8l3.6,2l1.5,1.7l2.9,0.9l2.9,2.6l-2.2,1.7l1.4,3.9l-2.9,1.4l-3.2-0.2l-0.5,1.4l2.6,1.4
		l1.4,3.9l2.6-0.3l2.7,1.7l0.7-3.9l2.4-1.9l0.9-2h2l-1.5,5.3l1.4,0.9l1.5-1.5l0.7-2.9l3.1,2.6l1,2.9l1.5,2.2v1.4l-1.4,1l-1.9-0.7
		l-3.2,2.9l0.3,1.9l3.4,4.9l2.6,0.2l3.1-2.7l0.9-2.6l-0.2-2.9l0.9-1.9l3.6-1.2l1,1.2l-3.4,4.3l0.5,0.9l5.8-0.2l5.6,1.2l0.5,4.3
		l2.9,0.9l1.5,2l4.4,1.2l4.4,3.8l1,3.2l2.9-0.2l2.2,1l6.3-1.7l3.4,1.5l5.5-3.8h4.6l4.8,1.2L268.6,295.5z"/>
	<g>
		<text transform="matrix(1 0 0 1 185.7246 241.7021)" class="st1 st2 st4">NAGESWARI</text>
	</g>
</g>
<g id="upa-fulbari">
	<polyline class="st5" points="151.6,283.1 154.3,283.4 155.7,282.6 160.3,278.8 161.6,273.7 164,268.9 165.7,268.8 168.1,270.3 
		167.4,275.2 164.9,279.2 164.9,285.3 165.9,285.8 170.5,283.9 179,280.9 182.4,278.7 182.6,277 176.8,277.8 175.8,276.3 
		181.8,271.2 180.1,267.1 177.7,265.9 178.4,264.5 181.4,264.7 184.1,263.3 183,259.6 185,257.7 182.1,255.1 179.4,254.3 
		177.8,252.4 174.3,250.5 171.9,245.7 170.5,239.1 168.1,238.2 169,237.2 172.9,237.7 173.9,236.4 172.9,234.7 171,235.3 
		169.8,232.6 168.6,230.7 166.8,230.4 167.1,228.3 167.9,226.6 166.8,217.1 166.1,207.7 164,207.2 159.9,204.3 157.7,202.2 
		155.8,201.2 154.6,199.9 153.6,200.5 152.3,202.8 151.9,204 153.1,205.7 152.6,207.4 150.2,206.2 149.5,207.9 150.4,210.6 
		151.2,213 151.2,214.9 150,215.2 150.2,216.6 151.2,216.9 151.9,220.2 152.6,221.2 153.1,223.4 151.9,225.4 152.4,227.5 
		153.4,229.7 152.9,232.8 152.1,232.8 151.2,231.1 149.5,231.4 148.8,229.5 147.3,230.6 147.6,231.4 149.5,234 149.2,236 
		147.6,236.9 144.8,236.9 144.2,235.7 144.8,232.6 144.8,230.7 143.2,230.7 142.4,231.9 142,234.3 140.3,235.8 139.8,236.7 
		139.6,238.6 137.4,238.4 134.9,237.2 132.3,236.4 130.6,234 131.1,231.1 132.5,228.9 129.9,228 129.6,225.8 130.3,224.8 
		130.9,223.2 133.5,222 136.1,220.2 135.5,219 134,219.8 132.5,217.3 131.4,215.9 129.1,216.7 129.4,217.4 131.4,217.4 130.6,219.1 
		128.5,218.3 125.6,217.6 123.8,216.6 122.7,215.2 120,216.4 118.5,218.6 115.2,219 112.9,218.5 109.8,218.8 106.5,219.5 
		103.1,221.2 104,222.2 104.2,224.9 100.9,227.5 99.9,230.2 99.7,233.5 100.7,235.2 102.1,236 102.5,238.1 104.5,239.8 108.3,239.6 
		110.3,238.1 111.5,236.2 112.5,236.2 112.7,237.4 111.3,238.7 113.2,239.8 113.7,241.6 115.4,242.8 116.4,245.4 116.6,248.1 
		118.1,250.9 118,253.2 116.8,254.4 116.8,255.6 118.1,255.8 119.7,258.2 120.5,259 120.2,262.5 120.5,264.3 122.7,264.8 
		126.2,264.7 126.8,267.7 127,270.6 129.4,272.9 132.3,273.9 134.2,277.1 135,278.3 137.6,278.5 139.5,279.9 140.8,279.2 143,280.4 
		145.9,279.9 147.5,278.3 149.2,278.5 151.6,283.1 	"/>
	<text transform="matrix(1 0 0 1 129.9668 259.6831)" class="st1 st2 st4">FULBARI</text>
</g>
<g id="upa-kurigram">
	<path class="st5" d="M169.5,342.4l-2.9-1l0.3-2.6l-0.2-1.5l-1.7,0.3l-0.5-0.5l1.5-1.5l-1.5-1.7l-2.7,2l-2.7-0.3l-2.2-3.1l1.5-2.7
		l1.5-2.4l-0.7-6.3l-4.3,0.2l-3.1-3.4l-1.4-1.4l2.4-3.1l-0.7-1.7h-3.4l-0.7-3.1l1.2-4.3l-3.6-3.2l-0.2-3.2l1.9-0.3l1.5,3.4l1.4-0.3
		l0.7-5.8l2.7-2.2l0.2-1.5l-1.4-0.7l-0.2-3.8l3.6-3.1l-0.5-0.9l4.8-3.9l1.4-5.1l2.4-4.8l1.7-0.2l2.6,1.7l-1,4.9l-2.4,3.8v6.3
		l1.2,0.5l4.4-2l8.4-3.1l3.6-2.2l0.2-1.7l-6,0.9l-0.9-1.5l3.9-3.2l2.4-2.2h2.2l2.7,1.9l0.5-4.1l2.6-1.9l0.7-2h2l-1.5,5.3l1.4,1
		l1.5-1.7l0.5-2.9l3.4,2.6l0.9,3.1l1.5,1.9v1.5l-1.4,1l-1.7-0.9l-3.6,2.9l0.5,2l3.4,4.9h2.6l3.1-2.6l0.9-2.6l-0.2-2.9l0.9-2l3.6-1
		l1,1.2l-3.4,4.3l0.5,0.9l5.8-0.2l5.6,1.2l0.5,4.3l3.1,0.9l1.4,2.2l4.4,1l1.5,1.7l2.9,2l0.9,3.2l3.1-0.2l2.2,1l6.3-1.7
		c0,0,3.6,1.7,3.4,1.7c-0.2,0,5.3-3.8,5.3-3.8l4.8-0.2l4.8,1.2h6l1.2,4.8l-3.1,6.1l-7,8.4l-1.7-0.9l-0.9,1.7l0.3,4.3l-1.2,3.4
		l-2.9,2.9l-1.4,2.4l-0.3,2l-4.1,3.4l0.2,3.1l-0.7,1.5l-2.6,0.7l-2.7,1.4l-5.3-0.5l-2.4,1.4l-4.6-1.7l-3.4-0.2l-1-1.9l-0.3-1.4
		l-3.4,1.2l-2-1l-1.9-2.7l-3.1-1l-4.1,1.9l-2.9-0.3l-1.2,1.2l-4.3,1l-2.6,1l-0.7,3.1l0.9,2.2l-0.2,2.2l-0.9,1.7l-0.2,2l-1.2-0.5
		l-3.1,0.2l-0.2,1.9l-3.2,0.3l-2.7-1.5l-0.9-1.4l-4.1-1l-0.3-3.1l-1.4-0.9l-1.5,0.7l-1.5-0.5l-0.5,1.9l-1.9-0.7l-3.2,0.3l0.3-1.9
		l3.6-0.7l-0.2-1.7l-4.9,1L169.5,342.4z"/>
	<g>
		<circle class="st1" cx="160" cy="296.1" r="8.9"/>
		<text transform="matrix(1 0 0 1 156.7651 300.9043)" class="st2 st3">2</text>
		<text transform="matrix(1 0 0 1 174.5352 302.5869)" class="st2 st3">KURIGRAM</text>
	</g>
	<text transform="matrix(1 0 0 1 188.9121 316.3516)" class="st1 st2 st4">KURIGRAM</text>
</g>
<g id="upa-rajarhat">
	<path class="st5" d="M117.8,363.4l-4.3,1.7l-4.6-0.2l-3.8-6.3l1.5-1.2l4.9-0.5l1-6.5l-1.7-2.4l-1.4-1.9l-2,0.9l-1.9-2.2l-2.4,1.2
		l-1-3.6l-2.9-7l-3.4-5.1l-1.4-1.2l-1.7,0.7l-0.7-1.7c0,0,1.4-2.7,1.4-2.9c0-0.2,0-3.4,0-3.4l-0.9-1.5l0.2-2.9l2.6-1.5l1.9,2.4
		l1.5-0.2l-1.2-2.4l-1.9-2l-1-1.4l-2.9,2.4H90l-0.9-2.9l4.9-2.9l2.7-0.2l1.2-1.2l2.9-0.9l2.6-3.8l1.7-0.2l0.7,2.4v2.2l-0.2,2.2
		l2.4,2.2l-1.2,1.9l4.1,0.9l-2,1.4l1.2,0.7l1.4-0.7l1.4,1.9l2.4,0.5l1.4-1.2l4.8,1.7l-0.2-3.1l0.5-1.5l-0.9-1.2l-0.2-2.4l1.5-0.3
		l1.2,2.7l0.7,1.4l2.2,0.2l2.2-2.4l0.5-3.9l0.5-4.4V301l-0.9-2l-0.2-5.1l-1.4-2.7l2.2-1.9l4.4,1.7l2.2,2l2.7-0.9
		c0,0,0.9-2.2,0.9-2.4c0-0.2-0.3-4.9-0.3-4.9l2.7-1.4l2.9,0.5l0.5-2c0,0,2.6,0,2.6-0.2s0.2-1.9,0.2-1.9l1.4-0.3l2,3.6l2.7,0.3
		l1.4-0.7l0.3,1l-3.6,2.9l0.2,3.8l1.2,0.7v1.4l-2.7,2.4l-0.7,5.8L149,301l-1.7-3.4l-1.5,0.3v3.2l3.4,3.2l-1,4.1l0.7,3.1l3.4,0.2
		l0.7,1.5l-2.4,3.2l4.4,4.8l4.3-0.2l0.7,6.1l-2.9,5.3l1.9,2.9l2.9,0.5l2.7-2l1.5,1.5l-1.5,1.9l0.3,0.3l1.9-0.3l0.2,1.5l-0.2,2.6
		l2.4,0.9l-1.9,0.2l-0.7,0.9l0.5,0.9l2.6-0.2l0.2,0.7l-1.5,0.7l3.6,2.6l-0.7,1.2l-0.2,1.5l-2.6,1.2h-1.7v3.1l-1.4,0.3l-4.6,0.2
		l-3.4-2l-1.7-0.2l-0.2,1l1.5,2.2l-0.7,2.7l-0.9,1.2l-0.9-1.2l-2.2,0.9h-0.9l-1-1.2l-1.2,0.2l0.5,1.9l-2.2,2.6l-0.9,2.6l-1.2-0.3
		l-2.7-2.2l-1.2,1.2l-0.2,1.2l-3.9-0.3l-0.9-3.9l-1.5,0.7l-0.3,1l-1.5-0.3V360H132v2.9l-4.8,0.2l-0.7-0.7l-1.7,0.3l-0.9-4.3
		l-1.2,0.5l-1,1.7l-0.5,2.2l-1.5,0.5H117.8z"/>
	<text transform="matrix(1 0 0 1 107.7871 338.2012)" class="st1 st2 st4">RAJARHAT</text>
</g>
<g id="pa-ulipur">
	<path class="st0" d="M173.9,445.6l0.9-1.5l-0.5-1.5l2.4-5.5l2.7-1.7l3.1-0.7l1.7-2.6l1.2-4.1l-1-2.4l-3.2,2.6l-2.2-2.9l1.4-2.9
		l2.9-0.7l1.2-2.9l0.2-4.1l3.4-2.4l0.5-2l-2.2-0.9l-1-2.9l3.1-2.9l0.9,1.2l-1.2,1.7l2.9,1l3.8-2l-0.5-1.7l0.3-1.5l3.8-1l-1-2.4
		l1.2-1.4h2.7l3.9-2.2l3.2,0.2l0.7,2.6l5.8,1.7v3.2l4.9,7l5.1,4.3l2.2,3.1l1-1.2l-0.9-3.2l10.2-7.3l4.1-0.5l-0.5-0.9l0.5-9l-2.2-3.6
		l8.2-11.8l1.2-0.3l0.9,1.7l-2.2,3.2l2,1.7l3.6-1.4l1.5,7.5l2.2,1.5l1.2-11.1l6-14l3.4-2l1-1.2l-1.5-4.3l-1.5-2.6l0.7-5.3l3.4-4.3
		l2.4-3.8l-0.9-3.8l-0.5-5.1l-2.4-4.1l-0.5-3.4l-1.7-4.6l-0.7-4.3l-2.4-2.9l-1.9-1l-1.4-0.3l0.3-1.5l-1.7-0.7l-0.9,1.5l0.3,4.6
		l-1.2,3.2l-2.9,2.9l-1.4,2.4l-0.3,2l-2.4,1.9l-1.7,1.5l0.2,3.2l-0.7,1.4l-2.6,0.7l-2.7,1.4l-3.1-0.3l-2.2-0.2l-2.6,1.5l-1.4-0.5
		l-3.1-1.4l-3.4-0.2l-1-1.9l-0.2-1.5l-3.6,1.4l-2-1l-1.7-2.7l-3.2-1c0,0-3.9,1.9-4.1,1.9s-2.7-0.3-2.7-0.3l-1.4,1.2l-4.3,1l-2.6,1
		l-0.7,3.1l0.9,2.2l-0.2,2.2l-0.9,1.7l-0.2,2.4l-1.2-0.9l-3.2,0.2l0.2,2l-3.4,0.2l-2.7-1.5l-0.7-1.5l-4.4-0.9v-3.1l-1.4-0.9
		l-1.5,0.5l-1.7-0.5l-0.5,2l-1.9-0.9l-3.2,0.3l0.3-1.9l3.6-0.5l-0.2-1.9l-5.1,1l-1.5,1.5h-2.4l-0.7,0.9c0,0,0.3,0.9,0.5,0.9
		s2.6-0.2,2.6-0.2l0.2,0.9l-1.7,0.5l3.8,2.6l-0.7,1l-0.2,1.9l-2.7,1h-1.5v3.2l-1.4,0.2h-2.7l-2.2,0.2l-3.1-2l-1.9-0.2v1l1.4,2.4
		l-0.5,2.6l-0.9,1.4l-0.7-1.5l-2.2,0.9l-1.2,0.2l-0.9-1.4l-1.4,0.3l0.9,2l-2.4,2.4l-0.9,2.6l-1.2-0.3l-2.7-2.2l-1.2,1l-0.2,1.5
		l-4.1-0.5l-0.3-2.6l-0.3-1.4l-1.5,0.5l-0.2,1.2l-1.5-0.3l-0.2-2.9H132v3.1h-4.8l-0.5-0.7l-1.9,0.2l-0.9-4.1l-1.2,0.5l-1,1.7
		l-0.5,2.2l-1.5,0.5h-2v2.2l2.6,3.9l-0.7,4.6l0.7,4.4l0.2,2.7l1.7-0.3l0.3,2.9l-1.7,4.4l-1.2,4.6l-0.2,2.4l0.7,0.5l1.7-0.9l0.2,1.7
		l-0.5,2.4l1,2l-0.3,1.2h1.4l1.5-2.4l1.7,1.4l0.5-3.4l1.9,0.2l-0.7,3.6l2.4,2.4l3.2,1.5l1.7,2.6l1,2.7l-1.2,5.1l-0.3,3.1l1.4,1.9
		l-0.9,1l-2.7-1.2l-1,3.8l-2.7-0.3l0.7,4.3l1.7,2.9l5.6,1.7l4.6,0.2l3.4,0.5c0,0,2.7,5.6,2.9,5.6c0.2,0,4.4,6.1,4.4,6.1l2,2.7
		l3.4-0.5l4.4-3.6l1-1.9l3.2-0.5l3.6,1.9L173.9,445.6z"/>
	<g>
		<circle class="st1" cx="180.5" cy="367.1" r="8.9"/>
		<text transform="matrix(1 0 0 1 177.248 371.9121)" class="st2 st3">3</text>
		<text transform="matrix(1 0 0 1 195.0186 373.5938)" class="st2 st3">KURIGRAM</text>
	</g>
	<g>
		<text transform="matrix(1 0 0 1 140.8906 393.2754)" class="st1 st2 st4">ULIPUR</text>
	</g>
</g>
<g id="upa-rowmari">
	<polygon class="st0" points="269.1,507.7 266.2,497.7 267,493.1 264,490.5 262.6,486.4 260.7,487.1 260.2,494.8 256.6,496 
		253.2,494.8 252.9,489.8 251.2,485.4 251,482 247.8,470.9 247.9,466.4 247.1,463.9 248.6,459.8 254.8,457.1 255.8,452.6 
		249.6,450.4 244,449.2 247.6,439.7 252.2,430.3 253.1,424.7 248.1,416.6 244.9,413.1 244.5,408.6 240.9,404.2 241.5,395 
		239.1,391.6 247.4,379.6 248.8,379.5 249.5,381.3 247.1,384.4 249.3,386.1 252.9,384.9 254.4,392.4 256.6,393.8 257.7,382.9 
		262.9,370.4 263.8,368.5 267.2,366.7 269.8,368.4 273.4,368.4 276.3,370.1 275.7,375.4 273.9,378.6 276.6,383 280,386.1 
		280.5,391.2 283.8,394.6 285.6,394.5 288.9,402.8 291.4,412.7 291.4,422.1 287.9,431.8 288.7,435.4 287.2,440.2 285,447.7 
		285,454.7 278.6,457.4 278.1,459.1 281,465.9 282.4,469.5 280,476.7 279.2,480.6 276.9,482.5 277.3,488.4 278.6,492.5 278.1,496.3 
		274.7,500.4 272,505.2 	"/>
	<text transform="matrix(1 0 0 1 247.3262 412.3516)" class="st1 st2 st4">ROWMARI</text>
</g>
<g id="upa-rajibpur">
	<path class="st0" d="M208.4,500.4l3.9,1.7l0.5,2l3.6,0.5v-2.6l3.6-1.9l2.4,2l1.7-1.5l0.5-3.2l3.1,1.4l0.9-1l-2.4-2.2l1.7-1.9
		l-5.1-1.4l0.9-2l6.1,2.2l3.2-4.1l0.5-3.1l-2.2-2.9l-3.1,0.5l-2.7-4.1l1.9-1.4l-0.5-2l-2.9-1l3.4-4.3l3.1,1.4l4.9-3.8l4.1,3.8
		l3.4-1.2l2.9,1.7l2-1.2l3.2,10.9l0.2,3.8l1.7,4.3l0.3,4.9l3.2,1.2l3.8-1l0.3-7.7l2-0.9l1.4,4.1l3.1,2.7l-0.9,4.3l3.1,10.1l-1.7,6.1
		l-1.5,6.7c0,0-1.4,2.2-1.4,1.9s-6.8-2-6.8-2l-9.6-3.9l-2.7-2.4l-8.2-2.4v2.7l2.4,0.7l1.4,2.6l-0.9,3.4l3.6,1.7l1,4.4l-1.5,6.5
		l-0.5,3.1l-5.1,2l-8.9,0.9l-2.6,2.2l-1.7-0.3l2.7-6l-0.3-1.2l-3.6-1.4l0.9-3.9l-3.4,1.9l-8.4,0.3l-4.1,0.7l-2.9,0.5l-2.9-4.4
		l0.3-0.9l3.9-1.2l-0.7-2.2l1-2.2l-1.5-3.6l-4.6,2.7l-1.2-2l4.6-5.8l2.6-7.3L208.4,500.4z"/>
	<text transform="matrix(1 0 0 1 225.8984 508.4004)" class="st1 st2 st4">RAJIBPUR</text>
</g>
<g id="upa-chilmari">
	<path class="st0" d="M208.9,500.6l3.4,1.4l0.5,2.4l3.6,0.3l0.2-2.4l3.4-2l2.6,2l1.7-1.7l0.3-2.9l3.1,1.2l0.9-1l-2.4-2.2l1.7-1.9
		l-5.1-1.4l0.9-1.9l6.1,2l3.2-4.1l0.5-3.1l-2.4-2.9l-2.9,0.5l-2.7-4.1l1.7-1.2l-0.5-2.4l-2.6-0.9l3.2-4.4l2.9,1.4l5.1-3.4l4.1,3.4
		l3.4-1l2.9,1.7l2-1.2l0.2-4.4l-0.9-2.6l1.5-4.1l6.1-2.7l1-4.4l-6.3-2.2l-5.5-1.2l3.6-9.6l4.6-9.2l0.9-6l-4.9-8l-3.2-3.4l-0.3-4.3
		l-2.9-3.8l-4.4,0.5l-8,5.6l-2,1.7l0.9,3.2l-1,1.2l-2.4-3.2l-4.9-4.1l-4.9-7v-3.2l-5.8-1.7l-0.7-2.6l-3.2-0.2l-3.9,2.2h-2.7
		l-1.2,1.4l1.2,2.4l-3.9,1l-0.3,1.5l0.5,1.7l-3.6,2l-3.1-1l1.2-1.7l-0.9-1.4l-3.1,3.1l1,2.9l2.2,0.9l-0.5,2l-3.4,2.4l-0.2,4.1
		l-1,2.9l-3.1,0.7l-1.4,2.9l2.2,2.9l3.2-2.7l1,2.6l-1.2,4.1l-1.7,2.6l-3.1,0.7l-2.9,1.7l-0.9,2.4l-1.4,3.2l0.5,1.5l-0.9,1.5l2.9,3.8
		l3.4,4.3l5.8,2.7l2.7,1.9l3.4,2.9l5.6-0.2l4.6-1.5l2.9,2.7l-2.6,1.4l-0.7,2.4l-2.9,0.5l-2,3.4l0.7,3.1l5.3,3.8l2.4,3.2l-0.9,2.9
		l-4.6,0.5l-4.4-0.7l-3.6,1l-0.2,2.6l7.3,6c0,0-1.5,2.9-1.7,3.1c-0.2,0.2-0.2,1.9-0.2,1.9l1.4,0.3l1-1.7l3.4,0.2l1.7-1.7l3.6,0.2
		l0.9,2.2L208.9,500.6z"/>
	<g>
		<circle class="st1" cx="217.4" cy="454.5" r="8.9"/>
		<text transform="matrix(1 0 0 1 214.1172 459.3047)" class="st2 st3">4</text>
		<text transform="matrix(1 0 0 1 231.8877 460.9883)" class="st2 st3">KURIGRAM</text>
	</g>
	<text transform="matrix(1 0 0 1 193.918 439.0215)" class="st1 st2 st4">CHILMARI</text>
</g>
</svg>
