<?xml version="1.0" encoding="utf-8"?>
<!-- Generator: Adobe Illustrator 22.1.0, SVG Export Plug-In . SVG Version: 6.00 Build 0)  -->
<svg version="1.1" xmlns="http://www.w3.org/2000/svg" xmlns:xlink="http://www.w3.org/1999/xlink" x="0px" y="0px"
	 viewBox="0 0 400 600" style="enable-background:new 0 0 400 600;" xml:space="preserve">
<style type="text/css">
	.st0{fill:#F44040;stroke:#FFFFFF;stroke-width:0.75;stroke-miterlimit:10;}
	.st1{opacity:0.5;}
	.st2{fill:#FFFFFF;}
	.st3{font-family:'MyriadPro-BoldCond';}
	.st4{font-size:9.9372px;}
	.st5{font-size:13.9622px;}
	.st6{font-size:22.5984px;}
	.st7{fill:#FFA667;stroke:#FFFFFF;stroke-width:0.75;stroke-miterlimit:10;}
	.st8{fill:#F76400;stroke:#FFFFFF;stroke-width:0.75;stroke-miterlimit:10;}
</style>
<g id="upa-ran-lalmonirhat_3">
	<path class="st0" d="M246.4,440.1l-0.2,4.6l2.4,3.3l3.1,0.5l2.2,3.3l-1.4,1.9l1,1.2l1.9-0.7l5,2.6l4.3-0.3l-0.2,3.9l6.2,5.8
		l3.3,2.6l3.4,0.2l4.8,1l1.5-0.5l2.6,2.1l1.7-1h4.3l2.4-1.2l0.5,3.6l5.3,1h4.8l2.1,2.2l2.6-1.9l0.5-5.3l-1.2-1.9l0.7-4.3l2.4-0.5
		l2.4,2.4l1.2-1.5l-1.2-1.7l0.9-1.4l-0.5-0.7l-3.3-1.5l-1.9-0.2l-2.9,2.9l-1.9-1.5l0.5-1.9l4.1-3.1l3.9-0.3l4.3-2.1l2.1-4.3l2.2-0.5
		l0.9,2.2l-1,2.2l2.7,4.1l0.3,3.8l2.6,1.9l3.6,2.4l2.7,0.2l0.7-1.4l1.2,1.4l4.6,0.3l-1-2.1l-1-4.1l1.2-2.2h1.2l1.4,4.1l3.4-0.2
		l2.4-3.3l0.9-10.3l-1.7-11l0.3-1.4l2.2-0.7l5.8,2.7l2.4,1.4l1.9-2.7v-5.1l1.9-2.2l5-0.7l3.1-3.1l1-2.7l-1-1l-2.9,2.2l-3.8,0.5h-2.4
		l-2.6-1.7l-3.8-0.5l-0.9-4.1l-4.1-1.5l-2.4-1.7l-0.9-7.2l-5-0.2l-2.2-2.1l0.9-4.5l-3.3-2.9v-1.9l0.5-3.8l-3.4-4.1l0.2-4.1l-3.1-7.2
		l-2.1,0.7l-2.6,3.3l-3.6-0.2l-2.7-2.4l-2.6-4.3l1.2-6.7l3.3-3.9l-0.2-2.9l-4.3-0.5h-5.8l-2.6-1.4l-5.1,0.2l-2.4,1.5l-1.2,5.8
		l-0.9,4.1l-0.3,4.5l-2.2,2.6l1.7,5.1l-0.2,5.7l0.5,2.9l-0.3,3.9l-1.7,3.9l-2.4,1l-1.7,4.1c0,0-2.7-0.2-2.9-0.3
		c-0.2-0.2-1.9-1-1.9-1l-0.9,1.9l1.7,1.2l2.2,0.2l-1.4,2.4l-1.9,1.2v2.1l-2.1,2.7l-5.5,1.2l-0.9,1.7l-5.7-0.7l-1,1.5l2.9,1.4
		l-1.5,3.8l-2.9,2.1l-2.2-1l-1,1.2l1.7,2.1l-1.9,2.2l-3.6-1l-7,0.7l-2.2-1l-0.9-5l-1.7,0.2l-0.2,4.1l0.9,4.3l2.1,3.1l-0.5,1.7
		l-2.6,0.3l-1.4-1.2l-3.1,2.1L246.4,440.1z"/>
	<g class="st1">
		<text transform="matrix(1 0 0 1 285.4814 438.1025)" class="st2 st3 st4">LALMONIRHAT</text>
	</g>
	<circle class="st2" cx="290.1" cy="452.4" r="7.6"/>
	<g>
		<text transform="matrix(1 0 0 1 287.9541 456.9131)" class="st3 st5">3</text>
	</g>
	<g>
		<text transform="matrix(1 0 0 1 167.5415 459.6396)" class="st3 st6">LALMONIRHAT</text>
	</g>
</g>
<g id="upa-ran-lalmonirhat_1">
	<path class="st7" d="M138.4,363.7l-1.5-1.7l-3.1,0.5l-3.3-4.6l0.5-2.2l-1-3.8l-1.2-1.7l-0.2-1.7l-2.4-2.4l0.3-2.1l-0.9-2.9l0.9-0.5
		l-4.1-3.9l0.2-1.2l1.4-0.7l-1.2-2.7l0.7-2.7l-2.4-4.3l-0.3-3.1l1.7-1.9l-0.9-3.3l1.7-3.1l2.1-0.7l-4.5-5.7l-1-2.4l0.9-1.2l-0.5-4.5
		l0.9-3.3l-0.3-4.3l0.7-1l4.1,0.2l1.4-1.9l-0.2-3.3l-1.7-4.3v-5l0.3-2.6l-2.2-2.7l-3.8-3.6l-0.2-3.4l-3.3-2.1c0,0-1-1.9-1-2.1
		c0-0.2-3.9-0.7-3.9-0.7l-4.8,1.5l-3.1-2.6l-4.3-0.5l-4.5-1.9l2.1-2.2l-1-1.4l-2.1,1.7l-1.5-2.6l-0.7-4.3l-3.9-1l-0.3-2.9l2.4-1.5
		l3.8-0.2l0.5-3.6l0.9-5.8l1.2-0.2l-0.9-4.1l-3.6-1.4l-3.4-1l-3.1-6.3l1-1.7l2.2-0.7l1.2,0.9h1.4l0.2-2.2l2.9,0.9l0.5,2.6l1.2-0.2
		l0.7-0.9l2.2,1.5l-0.5,3.1l5.7,0.7l4.1,2.9l-0.7,3.6l4.8,5l1.7,0.2l0.3-6.9l1.7-3.9l1.7-1l1.5,1.2l3.3-2.6l4.3,0.9l2.1-1.7
		l-0.2-1.5l-1.2,0.2l-2.6-1.9l1.4-5l3.1-1.2l2.7,0.5l3.1,5l2.7,1l0.3-1.9l4.5,1.2l1.5-0.9l-0.5-2.1l1.9-0.3l0.9,3.8l-1.9,0.9
		l-0.3,2.2l1,1.4l1.9-0.7l2.1,4.1l-0.5,3.3l1.2,3.8l-0.3,3.8l3.4,2.9l0.2,1.5l-3.6,3.6l-1.5,2.4l-0.9,4.6l-0.9,3.9l1.4,3.3l1.9,3.6
		l3.4-0.9l1.7,2.4l0.9,1.9l1.5,0.2l-0.5,2.9l-4.3-0.9v3.4l1.7,3.4l2.1,4.6h2.2l2.1,3.6l4.8,1.2l7.2,3.1l4.5-0.2l3.9-1.9l1.2,1.5
		l3.9,0.9h3.9l3.6,2.4v3.1l1.9,2.1l2.4,0.5l6.7,7.4l-1,2.1l0.9,1.7l6.3-0.5l1.5,1.4l-0.7,2.2l-3.1,2.6l-1.5,2.1l-1.2,7.5l5.8,2.4
		l5.3-1.2l1.4-2.2l1.9,1.7l-0.7,2.9l-0.3,3.6l-0.5,3.3l1,4.3l-0.9,3.1l-3.4-0.2l-3.8,0.7l-1.9-3.4h-2.4l-1.2,2.2l-0.7,3.6l-1,0.5
		l-1.2-2.2l-1.4,1.5l-2.9,0.7l-0.3-3.6l-1.9,0.3l-2.1-5.3l-3.8-2.1l-3.9-0.7l-1.5-4.8L184,325l-2.9-0.2l-1.9,2.7l-2.6,1l-1.2-2.9
		l-5.3-0.9l-2.9,1l-2.7,5l-2.4-0.2l-4.3,3.8l1.7,3.6l-0.7,1.2l1.9,2.9l-1,0.9l-1.5-1l-1.5,0.5l-10.8-0.7L145,343l0.7,2.2l0.7,5.5
		l2.7,4.6l-1.4,1.4l-1,2.2l-2.1,1.5l-1.9,2.6L138.4,363.7"/>
	<path class="st7" d="M98.2,219.7c0,0,2.6,0,2.6-0.2c0-0.2-0.7-3.4-0.5-3.6c0.2-0.2,2.9-4.6,2.9-4.6l3.3,1.9h2.1l0.3-1l-1.9-1
		l1.5-2.6c0,0-1.2-2.6-1.2-2.9c0-0.3-0.3-4.8-0.3-4.8l0.3-3.8l0.5-4.8l-4.1-2.9l-3.6,1.9l0.9,3.8l-0.5,3.1l-0.7,2.6l-3.6-1l-3.4-3.9
		l-3.3,0.9l-1.7-3.1l3.3-9.4l-2.6-1.5l-2.9,3.4l0.3,4.8l-0.3,2.6l-2.4-1.9l-1.4-5.5l-2.1,0.3l-0.9,4.5l-3.3,2.1l-1.7-4.8l-4.1-0.5
		l-1.4,3.9l-3.1,7.4l-5.1,2.4l-9.1,0.2l-5.1-5.8l-2.9-3.1l-3.9,0.3l-1.4-4.6l3.6-3.3l-2.6-5.5l-2.6-4.8l0.2-6.3l4.1,0.3l0.7,1.7
		l4.6-1.4l1.2,4.8l-2.9,2.6l1.4,4.3l4.5-2.7c0,0,3.1,2.1,3.1,2.4c0,0.3-1,5.5-1,5.5l4.3-1.2l1.4,1.9l-1.4,3.1l1.4,1.9l2.9-2.2
		l2.6,1.4l3.4-3.4l2.2-0.7l-0.9-4.3l1.7-4.6l4.5,2.1l1.2-4.8l2.1-3.9l-3.9-2.1l-2.7,1.2l-3.1-5.3l1.4-0.5l3.1,2.4l-1-3.6l-0.2-3.3
		l-4.8,1.7l-6.3-2.2l-2.6-0.3l0.2,3.1c0,0,1,1,1,1.4c0,0.3-1.4,8.1-1.4,8.1l-3.6-1.2l-0.3-4.1l2.7-2.2l-2.1-1.7l-1.4,1.4l-2.7-0.7
		l2.4-5l3.9-1.9l0.2-3.3l-2.2-2.4c0,0-2.1,1.2-2.1,1.7c0,0.5-0.7,5-0.9,5c-0.2,0-5.5-0.7-5.5-0.7l-4.1-3.4l-1.9-1.4l-1.7,2.9
		l-1.5-0.9l1-2.7l-3.9,1.2l-1.7-3.8l0.3-1.5l6.2-0.9v-1.7h-3.3l-3.3-1.7l3.9-3.4l1.2-5l-0.5-4.1l-1.9,0.3l-2.2,1l-2.6-3.4l0.7-0.9
		l1.5,0.7l3.6-0.9l5.3,1.2l2.9-4.5l-1-1.2h-1.9l-0.9-1.4l-0.5-3.3l4.5-0.3l-0.2-1.2l-2.9-0.2v-2.7l1.5-1l3.8,2.1l0.7,2.6l3.6,0.3
		l-0.2-4.5l4.1-0.9l-2.2-3.1l-0.9-3.9l3.8-2.6l3.9,2.7l1.2-1.9l-2.4-1.7l-1.2-3.8l3.4-0.3l1.9,4.8l3.9,1.2l3.9,0.7l0.3,4.6l-2.6,2.1
		l-0.5,2.2l2.4,0.5l-0.3,3.4l1.2,3.4l3.8,1.4l1.5,3.6l2.1-0.5l-1.5-3.4l-1.9-1.7l-1.5-2.6l2.1-3.3l2.2,2.1l-1.2,1.4l1,2.2l1.4-1
		l2.7,0.5l-0.3,2.4l1.5,2.6l2.4-0.9l2.9-1.4l2.9,1.4l-2.6,4.5l1.4,1.7l1.4-2.9l2.9-0.3l-0.2,3.4l1.7,4.6h1.9l0.3-3.8l5.1,0.3
		l3.8,1.2l1.7,0.7l1.7-2.7l5,1.7l-0.7,3.8l1.5,0.3l0.7-3.3l4.1-1.9h3.3l-0.2,1l-2.7,2.4l-2.7,1.4l1.2,0.9l2.9-1.5l2.7-0.9l1.9,1.4
		l-2.2,1.7l0.3,3.3l-2.1,2.4l0.7,3.8l-0.9,3.3l-3.9,0.2l0.3,1.7l2.6-0.7l2.9,2.1l2.7,0.5c0,0-0.5,3.1,0,4.8c0.5,1.7,0.9,3.4,0.9,3.4
		s0,3.9-0.2,4.1c-0.2,0.2-2.9,4.5-2.9,4.5l-4.1,3.6l-0.7,1.5l2.6,0.5l3.9-5.1l1.7,0.2l-1.2,2.7h3.1l2.1-2.2l2.1,1.7l-0.7,2.2
		l0.7,0.7h2.4l0.2-1.2l4.1-1l5.8,0.2l0.2,3.4L146,179l0.9,3.4l-4.1,0.2l-2.2,0.3v1l3.4,0.3l0.3,2.2l-2.9,2.4l-1,1.9l-1.4,2.6l-2.6-1
		l-0.2-3.3l-1-2.1l-0.5-3.1l-1.9-0.7l-0.3-4.1l-2.2-1.2l-0.9,1.5v3.1l-2.1,1l0.3,1l3.9,1.5l-0.5,2.1l-2.2,1.4l2.7,1.7l-2.7,2.1l-1,5
		l2.7,2.1l6.9,4.6l3.3,2.6l-2.4,3.1l-0.2,5.5l-0.9,1.4l-2.9-1l-3.1-5l-2.6-0.2l-3.1,1l-1.2,5l2.4,1.9l1.2-0.2l0.2,1.5l-1.9,1.5
		l-4.5-0.5l-3.4,2.2l-1.5-1l-1.5,1l-1.7,3.8l-0.3,6.9h-1.9l-4.8-5l0.9-3.4l-4.3-3.1l-5.5-0.7L98.2,219.7"/>
	<g class="st1">
		<text transform="matrix(1 0 0 1 77.2119 162.1553)" class="st2 st3 st4">PATGRAM</text>
	</g>
	<g class="st1">
		<text transform="matrix(1 0 0 1 138.1025 309.3418)" class="st2 st3 st4">HATIBANDHA</text>
	</g>
	<circle class="st2" cx="127.3" cy="239.5" r="7.6"/>
	<g>
		<text transform="matrix(1 0 0 1 125.0615 243.9897)" class="st3 st5">1</text>
	</g>
	<g>
		<text transform="matrix(1 0 0 1 140.7808 245.5527)" class="st3 st6">LALMONIRHAT</text>
	</g>
</g>
<g id="upa-ran-lalmonirhat_2">
	<polygon class="st8" points="246.4,440.3 242.6,437.4 237.3,435.9 234.8,432.4 230.8,430.7 227.9,426.3 225,424.7 223.3,419.6 
		224.1,416.5 224.3,413.7 222.2,410.3 217.4,408.4 216.1,403.1 218,402.9 217.1,398.1 218.3,396.8 216.6,393.7 217.4,392 
		221.6,391.8 225.3,394.2 228.4,393.9 229.4,392.5 228.9,390.8 229.4,388 235.6,387.2 236.5,383.8 239.9,381.2 240.1,379.3 
		241.1,375.4 241.1,371.4 243.7,369.2 242.5,366.8 243.7,365.1 245.6,361.5 248.1,360.4 249.2,362.7 251.2,359.8 256.4,361 
		262.3,358.6 264.9,356 264.4,351 266.8,350 273.1,351.2 276.6,352 277.4,349.5 275.4,346.1 275.5,343.5 278.3,342.8 281.7,340.6 
		282.9,338.7 283.4,336.1 283.9,332.9 286.3,333.2 291.8,331.7 291.8,330.3 292.9,329.9 295.6,332.3 297.7,335.8 297.3,340.2 
		294.2,344.9 294.6,348.8 297.5,350.8 303.6,351.4 307.8,353.2 310.2,356.8 309,356.3 303.8,356.7 301.4,358 299.4,367.8 299,372.3 
		296.8,375 298.5,380.2 298.3,385.8 298.9,388.7 298.5,392.5 296.8,396.6 294.4,397.6 292.7,401.7 289.8,401.4 287.9,400.5 
		287,402.3 288.6,403.5 291,403.6 289.6,406 287.7,407.1 287.7,409.1 285.5,412 280.3,413.2 279.3,414.9 273.7,414.3 272.6,415.6 
		275.4,417 274.2,420.9 271.1,423 268.9,422 267.8,423.2 269.4,425.1 267.8,427.3 264.1,426.4 257,427.1 254.8,425.9 254,421.1 
		252.2,421.3 252.1,425.4 252.9,429.7 255,432.8 254.5,434.3 251.7,434.8 250.5,433.6 247.4,435.7 	"/>
	<path class="st8" d="M224,416.7l-2.6-0.9l-2.2-2.7h-2.7c0,0-2.1,2.7-2.2,2.7c-0.2,0-4.1-0.2-4.1-0.2l-2.1-3.3l-3.6-1.2l-3.3-2.7
		l-4.3-0.7l-2.4-2.1l-3.9-4.5v-3.8l-0.9-0.2l-1.2,2.4l-3.9-4.5l-0.7-2.7l-3.4-3.3l-0.5-2.1l-3.1-2.1h-2.7l-4.1-3.9l-1.5-1.4
		l-2.6,0.2l-1.5,1l-7.7-0.5l-4.1-1.9l-14.4-13.2l-0.2-1.7l4.8-0.7l1.9-2.6l2.1-1.5l1-2.2l1.4-1.2l-2.7-4.8l-0.7-5.3L145,343l0.9-1.2
		l3.9,0.2l7.2,0.3l1.2-0.3l1.7,1l0.9-0.9l-2.1-2.9c0,0,1-1.2,0.9-1.2c-0.2,0-1.7-3.6-1.7-3.6l4.3-3.8l2.4,0.3l2.7-5.1l2.9-1l5.3,0.9
		l1,2.9l2.7-0.9l1.9-2.9h2.9l0.5,2.2l0.9,2.4l0.7,2.4l3.9,0.7l3.8,2.1l1.9,5.3l2.1-0.3l0.3,3.6l2.9-0.7l1.4-1.5l1.2,2.2l1-0.3
		l0.7-3.6l1-2.4l2.6-0.2l1.9,3.6l3.8-0.7l3.4,0.2l0.9-3.1l-1-4.3l0.3-3.4h5.1l2.4,1.9l2.2-0.9l2.4-0.3l3.6,2.1l1.9,2.2l2.1,0.5v1
		l1.2-0.3l0.2-0.7l2.4,1.2l0.9,2.4l2.7,1.9l2.4,2.2l-0.9,2.7l0.7,1l1.7-1.2l1.5,3.3l3.8,1.9l2.9,2.1l3.3-0.5l3.9-0.3l0.5,5l-2.6,2.6
		l-6.2,2.4l-5.1-1.2l-2.1,2.7l-1-2.1l-2.6,1l-1.7,3.4l-1.2,1.9l1,2.2l-2.6,2.4v3.8l-1,3.9l-0.2,2.1l-3.4,2.6l-0.9,3.3l-6,1l-0.7,2.7
		l0.5,1.5l-1,1.5l-2.9,0.3l-4.1-2.4l-3.8,0.2l-0.9,1.9l1.4,2.7l-1,1.5l0.7,4.6l-1.7,0.3l1.2,5.1l5,1.9l2.1,3.6L224,416.7z"/>
	<g class="st1">
		<text transform="matrix(1 0 0 1 160.3071 366.5459)" class="st2 st3 st4">KALIGANJ</text>
	</g>
	<g class="st1">
		<text transform="matrix(1 0 0 1 248.6357 390.2051)" class="st2 st3 st4">ADITMARI</text>
	</g>
	<circle class="st2" cx="213.4" cy="361.7" r="7.6"/>
	<g>
		<text transform="matrix(1 0 0 1 209.998 366.1592)" class="st3 st5">2</text>
	</g>
	<g>
		<text transform="matrix(1 0 0 1 226.8809 367.7227)" class="st3 st6">LALMONIRHAT</text>
	</g>
</g>
</svg>
