<?xml version="1.0" encoding="utf-8"?>
<!-- Generator: Adobe Illustrator 22.1.0, SVG Export Plug-In . SVG Version: 6.00 Build 0)  -->
<svg version="1.1" id="Layer_1" xmlns="http://www.w3.org/2000/svg" xmlns:xlink="http://www.w3.org/1999/xlink" x="0px" y="0px"
	 viewBox="0 0 400 600" style="enable-background:new 0 0 400 600;" xml:space="preserve">
<style type="text/css">
	.st0{fill:#CC9933;stroke:#FFFFFF;stroke-width:0.75;stroke-miterlimit:10;}
	.st1{font-family:'MyriadPro-BoldCond';}
	.st2{font-size:23.7778px;}
	.st3{fill:#FFFFFF;}
	.st4{font-size:10.4558px;}
	.st5{font-size:14.6909px;}
	.st6{fill:#BCBB33;stroke:#FFFFFF;stroke-width:0.75;stroke-miterlimit:10;}
</style>
<g id="upa-ran-panchagarh_2_2_">
	<polyline class="st0" points="215.3,210.1 216.4,213.2 214.3,215.3 217.1,217.4 216,219.1 215.7,224.3 219.5,226.1 214,229.9 
		212.6,227.8 208.4,228.1 206.7,231.3 208.1,233 208.4,238.5 207,241 204.9,239.9 201.1,242.3 197,237.1 201.8,234 201.1,232.3 
		198.4,233.3 196.6,233.3 195.6,230.2 198.7,227.4 197.7,225.4 193.2,224.3 193.2,221.6 197.3,220.9 192.5,212.9 191.8,209.1 
		187.3,209.1 186.6,206.7 190.4,201.5 185.2,200.4 172.7,197 158.9,197.7 154,192.1 150.6,193.2 151.3,197.3 149.2,198.7 
		140.2,186.9 141.2,183.8 137.4,183.1 131.2,187.6 118.7,180.7 113.2,182.8 112.5,190 113.2,205.3 105.9,211.2 103.1,199.7 
		102.1,195.2 98.3,194.5 96.5,188 93.4,185.2 94.5,175.5 102.1,168.2 106.6,160.3 106.6,153.3 111.4,149.2 111.1,140.5 118.4,129.1 
		119.4,118.3 123.2,103.1 128.8,100.3 136.7,100.3 138.1,98.3 137.4,95.8 130.8,95.8 130.1,92 136,86.5 137.1,82 144.3,77.1 
		148.8,77.8 148.1,86.5 150.6,106.9 150.9,124.2 156.5,136.7 161.3,142.6 164.1,142.2 164.4,146.7 167.5,148.8 173.1,147.8 
		175.2,139.8 188.3,142.6 190.4,144.7 189,148.8 190.1,152.3 193.9,149.5 195.6,166.8 199.4,165.1 202.9,160.3 205.6,160.6 
		207.4,165.8 212.9,165.1 215.7,168.6 212.2,174.5 216,177.9 215.7,183.1 209.8,185.9 209.8,191.4 214.3,193.2 219.1,192.1 
		223,196.6 222.3,202.9 218.1,202.9 217.8,199 214.6,198.4 212.6,201.5 214,205.3 211.5,207.7 204.9,210.1 204.9,212.2 208.4,213.2 
		215,210.1 	"/>
	<path class="st0" d="M215.9,182.9l-5.9,2.8v5.5l4.2,1.7l4.8-1l4.2,4.8l-0.7,5.9l-4.5,0.3l-0.3-4.2l-3.1-0.7l-2.1,3.5l1.4,3.5
		l-2.1,2.4l-6.9,2.4v2.1l3.5,1l6.9-3.1l1,3.1l-1.7,2.1l2.4,2.1l-1,2.1l-0.3,4.8l4.2,2.1l-5.5,3.5l-1.4-2.1l-4.5,0.7l-1.7,3.1
		l1.7,1.7v5.2l-1,2.8v2.1l-3.8,1.7l0.3,1.4l2.8,3.5v2.8l1.7,1.7l3.8-3.1l1.4,0.3l-0.3,1l-3.1,3.8l-1.7,2.8v2.8l2.4,2.8h1.7l2.8-3.5
		h1.4l-0.3,2.4l-2.8,4.5l-3.8,1.4l1,2.1l3.8-1l0.3,3.1l-3.8,1v1.7l1.4,2.4l-1.4,1l-2.8-1.4l-4.8,2.8l-1-1l2.8-6.9v-2.1l-2.1-0.3
		l-2.8,2.8h-4.5l-3.5-1l-1.4,1.4l2.4,3.8v2.1l-2.1,1.4l-3.1-1l-2.4-2.4l-3.5,2.8l-3.8,0.7l-3.8-2.1l-5.5,3.5l-1,4.5l-4.2,0.7
		l-1.4,2.8l0.3,2.8l-4.2,0.7l-1.4,4.5l4.2,7.6h1.4l2.4-3.5l5.2,2.1l1.7-0.7l4.2,2.4l2.1,5.2l4.8,2.1l6.9,1l1,3.8l-2.1,3.8l-4.8,6.9
		l-0.7,1.7l3.1,4.5l2.4,1l2.1-3.1l1.7-0.3l0.3,1l-0.3,2.1l3.8,0.3l1.7,1l1,3.1l5.5-1.7l1.7-2.4l2.4,0.7l6.9-1l3.1-0.7l-0.3-1
		l-5.9-3.5l-0.7-2.1l0.7-1h2.4l0.3-3.5l-0.7-2.4l-1.7-0.7l0.3-1.4h3.1l4.2,3.5l1.7,0.3l1-1.7l1-2.4l3.1-1l1-1l3.5,1.4
		c0,0,3.1,1,3.1,0.7s0.7-2.1,0.7-2.1l-2.8-2.8l1.4-0.7l2.8,1l1.4-2.8l4.2-2.8l0.7-3.1l3.8-0.7l2.8,2.1l2.1,1l1.7-2.1l0.7-4.2
		l3.5-1.7l3.5,2.4l-0.7,4.5l-1.4,3.8l1.4,0.7l3.5-3.1l5.5,0.7l3.8-0.7l6.2-2.1l3.5-2.1l1.7-2.8l2.4-1.4l1.7,2.1l-0.3,3.1l-0.3,1.7
		l1.7,0.7l1.4-2.1h3.5l3.5-1.4l-2.4-1.7l-0.7-1.4l1-1l2.4,2.4l2.1-1l3.1-0.7l0.7,2.4l-2.1,1.4l-2.1,2.1l0.3,2.8l-1.7,5.2l1,0.7h4.5
		l1.7,1.7l3.8,0.3l4.2,2.4l3.1,3.1l1.4,0.7l1.7-3.1l-3.1-1.7l-1.7-2.8v-2.1l-3.5-1l0.3-2.8l3.5-1v-2.4l-3.5-0.7l-2.1,0.3l-0.3-1
		l1-2.1v-2.1l4.5-1l4.5-1l1-3.1l3.1-0.7l0.7,1.7l-2.1,1.4l-0.7,1.7l1.7,0.3l-0.3,1.4l-2.1,0.7l1.7,3.1l2.8,0.3l3.8-0.7l6.9-1.4
		l2.4,2.1l4.8-2.4l1.4-1.4l-0.7-2.4l2.8,0.3l6.9,0.7l1-1.7l1-4.5l-1.4-1l-4.8,3.1l-2.4-0.3l1-3.1l5.2-3.5l-1-4.8l2.4-0.3l-1.4-3.8
		l-3.1-0.3l-3.1-3.5l-1,2.1l1.7,2.4l-1,1l-1.7-0.7l-1,1.4l-2.1,2.4l-7.6-1l-0.7,2.8v2.4l-2.8,2.1l-1.4,1.4l-1.7-1.7
		c0,0-0.7-1.7-0.3-2.1s2.1-1.7,2.1-1.7l-0.7-1.4l-1.7,0.7l-1.7,0.3l-0.3-2.4h-2.8l0.3-2.4l2.4-0.7v-5.2l-1-0.3l-2.8-1.4v-2.4h1.7
		l1-1l-1-0.7l-3.5-0.3l-1-5.5l-1-3.1l-2.8-1.4l0.7-3.8l3.8,0.7l3.5-1.4l4.8-0.7l0.7-1.7l-0.7-1.4l-2.1,0.3l-4.8,2.1l-2.1-1.4
		l0.3-2.8l1.4-2.1l-1-1l-2.4,1.7l-3.8,0.3l-3.1-1L309,247l3.5-0.7l1-2.1c0,0,1.7,0.7,2.1,0.7s4.8-1,4.8-1l-2.8-2.8l1.4-3.1l-2.1-2.1
		l-3.5,4.5H309l-2.4-0.7l-3.5-3.5l-3.8-2.1h-3.1l-2.1-3.1l2.8-1.7l-2.1-4.2l-5.5-0.7l-7.3-2.4l-2.8-1.7v-2.4l1-1l2.4-0.3v-3.5
		c0,0-1.4-5.9-1.7-6.2c-0.3-0.3-1-9.7-1-9.7l-1-2.1l-8-0.3h-8.3l-0.7,2.1l-0.7,12.1l-2.1,1.4l-4.2-1l-1.7-3.8c0,0-5.2-0.3-5.5-0.3
		c-0.3,0-6.2-1.4-6.2-1.4l-2.1-4.2l-1.4-4.8l-2.4-4.8v-1l1.4-3.1l-3.1-1.4l-3.8,1.4l-4.2-1l-3.1,1.7l-2.1,1l-2.8-1L215.9,182.9z"/>
	<path class="st0" d="M185.7,278.2l-2.1-2.8l-3.5-0.3l-4.8-1l-2.1-3.8l0.3-4.5l0.3-3.8h-2.1l-0.7,3.1l-2.8,1.4l-1.4,3.5l-3.8,4.8
		l-1.7,4.5l-1.7,5.9l-0.7,3.5l-2.4,1.7h-5.5h-5.5l-2.4-1.4l-5.2,5.2l-0.3,1.7h2.4l-0.3,2.4l1.7,0.7h4.5l-0.3,5.2l-8-1h-4.5l-6.2,2.8
		l-6.9,5.5l-6.6,4.5l-6.6,8.3l-4.2,4.8l-0.7,8.3l1.4,0.7l-1,10l0.7,4.2l4.8,1.7l1,1.7l-3.1,2.4l-0.3,2.4l0.7,1.4l-3.5,2.4l0.3,4.8
		l-3.5,1l-6.9,3.5l-3.5,1.4l-4.8,3.8l0.7,3.8c0,0,1.7,2.8,1.7,3.1s2.8,5.2,2.8,5.2l-0.3,1.4l-1.4,3.5l2.1,0.7l3.8-2.4H96l2.4-1.7
		l2.4,1.4l1.4,3.8l3.5,1.4l6.9,0.3l0.3,1.7h2.1l0.7-2.1l2.8-1.4l4.2,0.7l2.4-6.2l-1-1.4l0.3-5.2h7.6l3.5,2.4l2.4,2.1l5.2-1.4
		l-0.7-1.7l-3.1-3.5l1.4-0.7l6.2,2.8l2.8-0.7l3.5,0.3l2.4,2.1v1.4h1.7l1.7-1.7l5.5,1.7l2.8-0.7l3.8,1.4l0.7,2.4l5.9-0.7l-2.1-2.4
		l1.7-1.4l2.4,2.1l1.7-1l-3.5-3.5l4.2-0.3h6.2l11.1-0.3l5.9,2.4l4.2,0.3l2.1,4.5l-1,3.8l1.4,5.9l3.1,0.3l1.4-1.7h1.7l1.7,2.8l2.4-1
		l-0.3-2.8l6.2-3.8l0.3,3.5l-1.4,2.8l1,2.1h4.8l3.5-9.4l-8.7-9.7l1-1.7v-6.2l1.4-1l-0.7-3.8l-4.8-4.2l-5.9,3.1l-10.7,0.3l-1.7-1.4
		l-1.7-5.5l-3.5-0.7l-2.8,1.7l-7.6,0.7l-5.9-0.7l-1.4-3.8l0.7-2.4l-3.1-2.8l-1.7-9.4l-1.4-9l6.6-8.7l6.6-10l-1-3.8l-6.9-1l-4.8-2.1
		l-2.1-5.2l-4.2-2.4l-1.7,0.7l-5.2-2.1l-2.4,3.5h-1.4l-4.2-7.6l1.4-4.5l4.2-0.7l-0.3-2.8l1.4-2.8l4.2-0.7l1-4.5l5.5-3.5l3.8,2.1
		l3.8-0.7L185.7,278.2z"/>
	<g>
		<text transform="matrix(1 0 0 1 232.5947 250.146)" class="st1 st2">PANCHAGARH</text>
	</g>
	<g>
		<text transform="matrix(1 0 0 1 225.249 273.4067)" class="st3 st1 st4">PANCHAGARH</text>
	</g>
	<g>
		<text transform="matrix(1 0 0 1 133.1108 175.0708)" class="st3 st1 st4">TETULIA</text>
	</g>
	<g>
		<text transform="matrix(1 0 0 1 123.6221 349.8311)" class="st3 st1 st4">ATWARI</text>
	</g>
	<circle class="st3" cx="243.3" cy="218.1" r="7.9"/>
	<text transform="matrix(1 0 0 1 240.3848 222.4336)" class="st1 st5">1</text>
</g>
<g id="upa-ran-panchagarh_2_1_">
	<polygon class="st6" points="317.3,261.9 318.4,260.5 321.1,262.9 324.6,263.6 324.3,266.1 321.1,266.8 322.2,267.8 326.3,266.4 
		328.4,267.4 329.1,268.5 326,269.9 326,270.9 329.1,269.9 329.5,271.3 327.4,272.3 327.7,273.3 329.1,273.3 329.5,275.8 
		338.1,275.8 338.1,283 336,284.1 335.7,285.5 335,288.2 335,290.7 332.2,292.7 330.8,294.1 329.1,292.4 328.8,290.7 330.8,288.6 
		330.2,287.2 328.4,287.9 326.7,288.2 326.3,285.8 323.6,285.8 323.9,283.4 326.3,282.7 326.3,277.5 322.5,275.8 322.5,273.3 
		324.3,273.3 325.3,272.3 324.3,271.6 320.8,271.3 319.8,265.4 318.7,262.6 	"/>
	<polyline class="st6" points="320.1,320.8 321.5,318.4 320.1,317 321.5,313.5 323.9,309 326.7,306.9 323.9,306.6 322.2,303.5 
		324.3,302.8 324.6,301.4 322.9,301 323.6,299.3 325.6,297.9 325,296.2 321.8,296.9 320.8,300 311.8,302.1 311.8,304.2 310.8,306.2 
		311.1,307.3 313.2,306.9 316.6,307.6 316.6,310 313.2,311.1 312.8,313.9 316.3,314.9 316.3,317 318,319.7 320.1,320.8 	"/>
	<g id="upa-ran-panchagarh_2">
		<path class="st6" d="M232.8,403.2l0.1,0.1l3.7,2.3l0.7,1.4l-0.3,5.9l4.2,6.2l8.3,7.6l3.5,3.5h2.4l6.6,0.7l10.4,9.7l1,4.2l6.2,10
			l2.8,0.7l-0.7,1.7l0.7,3.1l3.1,0.3l-1,2.4v5.5h2.8l0.3,4.5l3.8,0.3l4.8-5.2v-5.2l4.2-3.5l0.7-8l2.1-0.7v-3.8l-3.1-0.3l-3.8-2.1
			l1-3.8h2.8l-0.3-2.4l-6.6-5.9l-2.1-0.3l-0.3-3.8h3.5l2.4,2.4l3.1-0.7l3.1-5.5l-2.1-1.7l-3.1,2.1l-1.4-3.5l1-3.1l-1.7-3.8l2.8-3.5
			l-3.5-8.7l5.2-9l0.7-2.8l4.2-9.7l5.5-1l6.2,1.7l2.4-1L316,380l-1.4-1l0.3-4.8l-2.1-5.2l2.1-1.4l1-4.8h-3.8l-1-2.1l2.4-3.1
			l-1.7-2.8l-7.3-0.3l-3.1-2.1v-1.4l2.4-0.3l1.4-3.5l4.5-0.3l3.5,2.4l2.1,6.2l0.3,2.4l-1.4,2.1l1,1.4l2.4-1.7l2.1,1.7l-0.7,4.2
			l1,4.8l3.5,2.1l8.7-1.7l0.7-1.4l-1.4-4.5l1-1l3.8-0.3l-0.7-9.7l-1.4-5.5l3.5-4.2l1-3.5l2.1-1l1.4,3.1l2.8-1c0,0,1.7-3.8,1.7-4.2
			s1-4.5,1-4.5l4.5,2.1l1,6.9l2.8,1l1-4.2l2.4-5.2l1.7-1l1.7-3.8l-1-2.8h-2.8l-0.7,2.4l-1.4,0.3l-0.7-2.4h-1.4l-1.4,2.4l-3.5,2.4
			l-3.1,1l-0.3-1.7l3.1-1.7l2.8-3.5l1-3.5l2.8-1.7l0.3-6.9l-3.1,0.3l-1,2.1l1.7,3.8l-1,1l-5.5-2.1l-2.4-0.3v2.8l-1.7,1l-1.7-2.4
			l-3.1,0.7l1,4.2v2.4l-4.8,2.1l-5.2-0.3l-6.2,2.4l-1.7,1l-0.3,6.2l-4.2,4.2l-3.8,2.8l-1-3.1l-6.6,0.7l0.3-2.4l2.8-0.7l-0.3-2.8
			l-2.8-1.4l0.7-5.9l-1.7-3.8l2.4-3.5l-0.3-4.2l-1.7-1.7h-4.5l-1-0.7l1.7-5.2l-0.3-2.8l2.1-2.1l2.1-1.4l-0.7-2.4l-3.1,0.7l-2.1,1
			l-2.4-2.4l-1,1l0.7,1.4l2.1,1.7l-3.1,1.4h-3.5l-1.4,2.1l-1.7-0.7l0.3-2.1l0.3-2.8l-1.7-2.1l-2.4,1.4l-1.7,2.8l-3.5,2.1l-6.2,2.1
			l-3.8,0.7l-5.5-0.7l-3.5,3.1l-1.4-0.7l1.4-3.8l0.7-4.5l-3.5-2.4l-3.5,1.7l-0.7,4.2l-1.7,2.1l-2.1-1l-2.8-2.1l-3.8,0.7l-0.7,2.8
			l-4.2,3.1l-1.4,2.8l-2.8-1l-1,0.7l2.4,2.8l-0.7,2.4l-6.6-2.4l-1,1l-3.1,1l-1,2.4l-1,1.7l-1.7-0.3l-4.2-3.5h-3.1l-0.3,1.4l1.7,0.7
			l0.7,2.4l-0.3,3.5h-2.4l-0.7,1l0.7,2.1l5.9,3.5l0.3,1l-3.5,0.7l-6.6,1l-2.4-0.7l-1.7,2.4l-5.5,1.7l-1-3.1l-1.7-1l-3.8-0.3l0.3-2.1
			l-0.3-1l-1.7,0.3l-2.1,3.1l-2.4-1l-3.1-4.5l0.3-1h-0.3l-5.5,7.3l3.1,18l3.1,3.1l-0.7,2.4l1.4,3.8l6.2,0.7l7.3-0.7l2.8-1.7l3.5,0.7
			l1.7,5.5l1.7,1.4l10.7-0.3l5.9-3.1l4.8,4.2l0.7,3.8l-1.4,1v6.2l-1,1.7l8.7,9.7"/>
		<polygon class="st6" points="321.8,331.9 318.4,331.5 316.3,328.1 315.6,325.3 319.1,325.3 319.1,324.2 318,323.9 314.9,320.8 
			310.8,318.4 306.9,318 307.3,322.2 304.9,325.5 306.6,329.4 306,335.5 308.7,336.7 308.9,339.4 306.3,340.2 305.9,342.6 
			312.4,342 313.4,344.8 317.3,342.3 321.5,338.1 		"/>
		<path class="st6" d="M285.1,339.5L282,345l4.8,5.5c0,0,3.8,1.4,4.2,1s2.1-2.8,1.7-3.5c-0.3-0.7-3.1-3.8-3.5-4.5
			C288.9,342.9,285.1,339.5,285.1,339.5z"/>
		<polygon class="st6" points="290,338.1 294.1,335 297.9,333.6 299.7,335 297.6,337.1 293.1,339.5 291,341.2 289.3,339.5 		"/>
		<polygon class="st6" points="319.1,380.7 322.2,382.1 324.3,380.7 329.1,381 333.6,384.9 334.7,386.9 334.7,388.7 332.6,388.3 
			331.2,386.9 329.8,388 331.9,389.7 331.5,392.1 329.1,392.5 328.1,395.9 328.1,399.1 331.9,401.5 333.6,401.5 335.3,404.9 
			337.1,404.2 335.7,399.1 336.7,398 343.3,402.5 344.4,402.2 344.4,399.1 343.3,397.3 345,394.9 344,390.4 341.6,392.1 
			339.5,392.1 338.8,389.7 337.1,387.6 338.8,386.9 338.5,381.4 336.7,381.4 336.7,379.7 338.1,377.9 336.4,372.7 337.8,367.2 
			336.3,363.2 332.6,363.7 331.5,364.9 332.9,369.3 332.1,370.8 323.6,372.4 320.1,370.3 319.1,365.5 319.8,361.3 317.7,359.6 
			315.3,361.3 314.2,359.9 315.6,357.8 315.1,355.3 313.1,349.1 309.7,346.8 305.2,347.1 303.8,350.6 301.4,351 301.4,352.3 
			304.5,354.4 311.8,354.7 313.5,357.5 311.1,360.6 312.1,362.7 315.8,362.7 314.8,367.7 312.8,368.9 314.9,374.1 314.6,379 
			316,380 		"/>
		<polyline class="st6" points="354.4,313.2 356.1,307.3 357.9,302.8 363.7,303.5 364.8,309 365.8,313.9 365.5,319 368.2,323.2 
			369.3,324.6 369.3,330.8 367.9,333.6 367.9,338.1 364.1,345 364.4,350.2 366.5,355.4 366.2,361.6 365,362 364.1,369.4 
			361.7,374.8 367.9,384.5 373.4,392.5 371.4,398 370.4,405.1 359.9,406.7 358.9,411.7 360.3,421.6 357.2,421.9 356.8,423.3 
			360.3,426.8 364.4,428.1 366.1,433.8 364.4,437.5 366.2,438.9 368.8,434.4 372.1,435.5 377.9,436.5 382.1,437.2 382.1,443 
			376.6,450 372.4,454.5 371.7,458.3 368.2,465.6 364.8,468 362,468 361.7,469.7 366.2,473.9 373.1,478 373.1,481.8 374.8,483.2 
			372.4,491.2 367.9,494.3 363.7,500.2 363.4,504.7 361.3,504.7 362.7,509.9 362,512.7 358.9,514 354,511.6 351.6,514.7 
			347.1,518.2 341.6,518.2 337.4,524.4 334,525.1 325.3,525.8 323.9,523.7 323.6,519.6 310.4,519.6 306.6,521 303.1,519.9 
			298.3,511.3 291.7,502.3 292.1,500.5 289.6,497.4 281.3,494.3 277.5,487.4 281.3,483.9 283.7,480.8 282,474.9 287.6,471.8 
			287.6,473.2 291.6,473.5 296.2,468.3 296.2,463.1 300.4,459.7 301.1,451.7 303.1,451 303.3,447.4 300,446.8 296.2,444.8 
			297.2,441 300,441 299.7,438.5 293.1,432.6 291,432.3 290.7,428.5 294.1,428.5 296.6,430.9 299.7,430.2 302.8,424.7 300.7,423 
			297.6,425 296.3,421.4 297.2,418.4 295.5,414.6 298.3,411.2 294.8,402.5 300,393.8 300.9,390.8 304.9,381 310.4,380 316.6,381.7 
			319.1,380.7 322.2,382.1 324.3,380.7 329.1,381 333.6,384.9 334.7,386.9 334.7,388.7 332.6,388.3 331.2,387 329.8,388 
			331.9,389.7 331.5,392 329.2,392.5 328.1,395.9 328.1,399.2 331.9,401.5 333.6,401.5 335.3,404.9 337.1,404.2 335.8,399.1 
			336.8,398.1 343.3,402.5 344.4,402.2 344.4,399.2 343.3,397.3 345,394.9 343.9,390.5 341.7,392.1 339.5,392.1 338.8,389.7 
			337.1,387.7 338.8,386.9 338.5,381.4 336.7,381.4 336.7,379.7 338.1,377.8 336.4,372.7 337.8,367.2 336.2,363.1 335.7,353.7 
			334.3,348.1 337.8,344 338.8,340.5 340.9,339.6 342.3,342.6 345,341.6 346.8,337.4 347.8,332.9 352.3,335 353.4,341.9 
			356.1,342.9 357.2,338.8 359.6,333.7 361.4,332.5 363.1,328.8 362,326 359.2,326 358.6,328.4 357.2,328.7 356.4,326.4 
			355.1,326.3 353.6,328.8 350.2,331.2 347.1,332.2 346.8,330.5 349.9,328.7 352.6,325.4 353.7,321.8 356.5,320.1 356.8,313.2 
			354.3,313.5 354.4,313.2 		"/>
		<g>
			<text transform="matrix(1 0 0 1 248.4941 371.8672)" class="st3 st1 st4">BODA</text>
		</g>
		<g>
			<text transform="matrix(1 0 0 1 317.665 460.0137)" class="st3 st1 st4">DEBIGANJ</text>
		</g>
		<g>
			<text transform="matrix(1 0 0 1 260.752 414.1943)" class="st1 st2">PANCHAGARH</text>
		</g>
		<circle class="st3" cx="271.5" cy="382.1" r="7.9"/>
		<text transform="matrix(1 0 0 1 268.542 386.4824)" class="st1 st5">2</text>
	</g>
</g>
</svg>
