	<svg version="1.1" id="Layer_1" xmlns="http://www.w3.org/2000/svg" xmlns:xlink="http://www.w3.org/1999/xlink" x="0px" y="0px"
								 viewBox="0 0 300 400" style="enable-background:new 0 0 300 400;" xml:space="preserve">
							<style type="text/css">
								.all_district .st0{fill:#D4DB75;stroke:#FFFFFF;stroke-width:0.75;stroke-miterlimit:10;}
								.all_district .st1{font-family:'MyriadPro-BoldCond';}
								.all_district .st2{font-size:11.7922px;}
								.all_district .st3{fill:#BCBB33;stroke:#FFFFFF;stroke-width:0.75;stroke-miterlimit:10;}
								.all_district .st4{fill:#F76400;stroke:#FFFFFF;stroke-width:0.75;stroke-miterlimit:10;}
								.all_district .st5{fill:#FF9685;stroke:#FFFFFF;stroke-width:0.75;stroke-miterlimit:10;}
								.all_district .st6{fill:#00B4E5;stroke:#FFFFFF;stroke-width:0.75;stroke-miterlimit:10;}
								.all_district .st7{fill:#CFAF00;stroke:#FFFFFF;stroke-width:0.75;stroke-miterlimit:10;}
								.all_district .st8{fill:#19A95C;stroke:#FFFFFF;stroke-width:0.75;stroke-miterlimit:10;}
								.all_district .st9{fill:#FFA667;stroke:#FFFFFF;stroke-width:0.75;stroke-miterlimit:10;}
								.all_district .st10{fill:#E5001C;}
							</style>
							<g id="div-gaibandha">
								<polygon class="st0" points="178.4,293.7 175.6,299.9 179,306 181.7,305.5 185.7,311.6 185.1,313.3 190.1,316.6 191.8,313.3 
									199,314.9 201.8,316.1 202.4,321.1 208,322.2 209.1,320 214.1,322.2 215.2,320 219.7,323.3 226.4,324.4 229.2,327.8 232,327.8 
									234.2,323.3 244.3,322.8 245.9,325 249.3,320 247.1,318.3 245.9,313.8 253.8,305.5 253.8,299.9 257.7,296 261,296.5 264.4,291.5 
									263.8,285.9 261.6,282 261,271.4 253.2,269.2 252.6,266.4 253.8,265.3 254.3,258.6 246.5,256.9 251,254.1 249.3,251.3 249.3,249.1 
									244.8,245.2 241.5,245.2 239.2,247.4 237.6,242.9 232.5,240.7 228.6,234.6 221.4,238.5 223.6,242.4 220.8,243.5 219.1,240.1 
									215.2,239 210.2,240.7 208.5,243.5 213,247.9 212.4,253 215.8,254.6 212.4,259.7 208.5,259.7 199,274.2 201.8,279.8 197.9,279.8 
									201.8,285.4 189.6,285.4 194,290.4 193.5,294.3 188.4,296.5 	"/>
								<text transform="matrix(1 0 0 1 202.3417 298.9814)" class="st1 st2">GAIBANDHA</text>
							</g>
							<g id="div-kurigram">
								<polygon class="st3" points="218.6,180.4 219.7,170.3 227.5,170.3 228.6,175.4 232,178.7 232.5,176.5 235.3,175.4 235.3,172.6 
									232.5,172 232.5,167 238.1,162.5 244.8,163.1 244.3,159.2 242,158.6 241.5,154.7 239.8,155.3 238.1,158.6 235.3,156.9 237.6,153.6 
									234.8,149.1 235.3,146.3 238.1,145.8 241.5,140.8 241.5,136.3 243.2,134.1 248.2,134.1 253.2,137.4 250.4,139.1 249.3,143 
									251,146.3 252.6,144.7 258.8,145.2 266.6,159.7 264.4,160.9 264.4,164.8 267.2,164.8 270.5,173.7 275.5,173.1 270.5,178.7 
									280,182.1 280,184.3 272.7,191 273.3,197.1 270.5,201.1 274.4,209.4 270.5,212.8 270.5,215.6 274.4,215.6 272.7,220.6 277.8,224.5 
									277.8,240.1 275,245.2 273.9,258.6 271.6,261.3 271.6,267.5 264.4,263 263.8,266.4 267.2,268 261.6,272 259.3,270.8 258.8,268.6 
									257.1,270.3 252.6,270.3 252.6,260.8 254.3,258 248.2,256.9 251,254.1 249.3,251.9 248.7,248.5 244.8,244.6 240.9,244.6 
									239.2,247.4 237.6,242.9 232.5,240.7 228.6,234 225.3,230.6 225.3,222.3 220.8,217.8 225.3,216.7 222.5,214.5 218.6,213.9 
									216.9,208.3 219.7,205 223.6,211.1 228.1,206.6 228.6,199.4 235.9,192.7 235.9,191.6 230.3,191.6 230.3,187.1 228.1,188.2 
									222.5,181.5 	"/>
								<text transform="matrix(1 0 0 1 229.1259 218.5381)" class="st1 st2">KURIGRAM</text>
							</g>
							<g id="div-lalmonirhat">
								<polygon class="st4" points="152.7,132.9 157.7,130.2 154.9,126.8 152.2,126.8 149.4,121.8 145.5,125.1 142.7,121.8 146.6,119 
									144.3,116.2 142.1,115.6 140.4,117.9 134.8,115.1 132.6,109.5 138.8,100.6 145.5,98.3 144.3,101.7 151,105 154.4,108.9 
									162.2,107.8 164.4,112.3 160,112.3 163.3,116.2 160.5,119 166.7,119 170,123.5 169.5,125.1 165,125.1 162.2,122.9 162.2,126.8 
									169.5,134.6 170,138 168.3,140.2 173.4,150.3 181.7,150.8 187.9,156.9 187.9,159.7 185.7,160.9 186.2,162.5 190.7,162.5 
									195.1,165.3 198.5,169.2 205.2,171.5 209.1,164.8 211.3,164.8 211.9,168.7 215.2,168.7 217.5,171.5 219.7,170.9 218.6,181 
									223.1,181 227.5,188.2 230.3,187.1 229.8,191 235.9,191.6 235.9,193.8 228.1,199.9 228.1,206.6 223.1,211.1 220.3,209.4 220.3,205 
									216.4,208.9 209.7,206.1 208,208.9 199,202.7 197.9,197.7 191.2,195.5 191.2,191 186.8,191.6 177.8,186 173.4,181.5 166.7,179.3 
									162.8,174.3 160,161.4 162.2,149.7 152.7,143 	"/>
								<text transform="matrix(1 0 0 1 166.6386 175.6299)" class="st1 st2">LALMONIRHAT</text>
							</g>
							<g id="div-nilfamari">
								<polygon class="st5" points="118.1,138.5 112.5,130.7 112.5,124 114.7,121.2 120.9,124.6 119.2,130.7 121.4,131.3 124.8,135.7 
									128.1,135.2 128.1,130.2 125.4,129 127.6,125.1 134.8,125.7 141,135.7 142.7,132.9 147.1,133.5 148.8,134.6 151.6,132.9 
									152.7,143.6 161.6,149.7 160,160.3 162.2,171.5 166.1,179.8 172.8,181.5 177.3,186 171.7,196.6 168.9,192.1 162.8,197.7 
									163.9,203.8 158.9,199.4 156.6,204.4 146.6,202.7 139.9,204.4 141.5,210 136.5,215.6 130.9,214.5 128.7,211.1 124.8,210.5 
									127,204.4 121.4,204.4 120.9,191 116.4,183.2 110.3,182.1 109.7,173.7 115.9,163.6 115.3,156.9 118.1,151.4 117,141.9 	"/>
								<text transform="matrix(1 0 0 1 115.2157 179.7842)" class="st1 st2">NILFAMARI</text>
							</g>
							<g id="div-dinajpur">
								<path class="st6" d="M63.9,223.9v-4.5l-6.1-4.5v-4.5l2.2-3.3l-2.8-1.1l0.6-6.1l2.8,1.1l-0.6-5.6l7.8,0.6v3.9l5-1.1
									c0,0,0.6-0.6,0.6-1.1c0-0.6-1.7-4.5-1.7-4.5l5-10h3.9l-2.8-3.9l1.7-5h3.3l2.2-4.5l2.8,5l4.5-0.6v-5l3.3-2.8l4.5,5.6l9.5,1.7
									l0.6,6.1l1.7,3.3l4.5,0.6l5.6,7.8l-0.6,14h6.1l-1.7,6.1h3.3l1.7,2.8l6.1,1.1l1.1,8.9l7.8,4.5l3.9,8.9l9.5,2.2l3.9,21.2l7.8,3.3
									l-2.8,1.1l4.5,3.3l5,0.6l0.6,2.2l3.9,0.6l-1.1,3.3l7.8,5l-1.1,5l6.1,5.6l-1.1,3.3l-3.9,2.8l-11.2-2.8l-5.6-1.1l-8.9,1.7l-2.8-4.5
									l-5,1.1l-6.1-3.9v-4.5l-1.7-2.2l-14.5-0.6l0.6-3.3l-1.1-1.7l-2.8,3.3l-7.8-8.4v-3.3l-3.3-1.7l2.8-2.8l2.2-5.6l-2.2-4.5l-2.8-0.6
									v-6.1l-3.9,2.2l-2.8-1.7l1.1,6.7l-3.9-1.7l-5.6,3.9l-8.4-0.6v-2.8h-4.5l-1.7-3.3l-3.9,1.7l-7.8-0.6l-1.1-5l-3.9-1.7V239h-4.5
									l-4.5-2.8v-4.5l2.8-1.1v-5L63.9,223.9z"/>
								<text transform="matrix(1 0 0 1 77.7245 223.8516)" class="st1 st2">DINAJPUR</text>
							</g>
							<g id="div-panchagarh">
								<path class="st7" d="M50.5,100.6l-2.2-6.7l4.5-7.3l2.2-8.9l5.6-6.7l1.1,11.7l4.5,4.5l5-1.1l1.1,4.5l5,0.6l-0.6,3.3l4.5,2.2l1.7,2.2
									l4.5,0.6l2.8-3.3l3.3,6.7l5,5.6l2.8-1.7l2.2,1.7l-2.2,4.5l3.3,2.2l0.6,1.7l5-1.1l1.1,5.6h-7.3l-0.6,4.5l-5,1.1v2.2l6.1-1.1l6.1-4.5
									l2.2,1.7v6.1l5.6,7.8l-1.7,3.3l1.1,9.5l-2.8,5.6l1.1,6.7l-6.7,8.9l-9.5-1.7l-5-6.1l-0.6-2.2l3.3-5l-6.1-7.8l-2.8-0.6l-5.6-6.1
									l-11.2-1.7l-3.9,0.6l-5.6-2.2l-5.6,1.1l-1.1,4.5l-8.4-6.1l5-4.5l-2.2-2.8l0.6-9.5l6.7,0.6l4.5-5.6c0,0,3.3-0.6,3.9-1.1
									c0.6-0.6,2.2-5,2.2-5l2.8,5l5-5.6l-4.5-5v-5l-3.9-3.3l-5.6,1.7L60,95l-3.3,1.7l-3.3-0.6L50.5,100.6"/>
								<text transform="matrix(1 0 0 1 56.413 139.3301)" class="st1 st2">PANCHAGARH</text>
							</g>
							<g id="div-thakurgaon">
								<polygon class="st8" points="47.5,139.9 55.9,146.6 57.5,141.6 63.1,140.5 68.1,142.7 72,142.2 83.2,143.3 88.8,150 91.6,150.5 
									97.7,158.3 94.9,163.4 94.9,166.7 92.7,169.5 92.1,174 87.7,175.7 84.3,170.6 83.2,174.5 78.7,174.5 77.6,180.1 80.4,181.8 
									80.4,183.5 77.1,182.9 72,194.6 73.2,198 68.1,199.7 67.6,195.8 59.8,196.3 59.8,200.8 57,200.8 56.4,206.4 59.8,206.9 58.1,210.8 
									58.1,215.8 63.7,219.2 64.2,223.7 59.2,225.3 53.1,219.8 50.3,213.6 44.7,212.5 39.1,206.4 38,200.8 30.2,205.8 26.8,202.4 
									20.7,208 14,199.1 15.7,194.1 10.6,191.8 12.3,183.5 15.7,181.2 15.7,176.2 19,171.7 24.6,169 26.8,162.3 22.4,159.5 26.3,149.4 
									31.8,147.2 31.8,141.6 43,142.2 	"/>
								<text transform="matrix(1 0 0 1 18.5644 184.1182)" class="st1 st2">THAKURGAON</text>
							</g>
							<g id="div-rangpur">
								<polygon class="st9" points="136.8,215.4 141.9,209.8 140.2,204.1 146.9,201.9 156.5,203.6 159.3,198.5 163.8,203 163.8,196.8 
									169.5,191.2 171.7,195.1 177.9,185.5 186.9,191.2 191.5,190.6 192,195.7 198.2,197.4 199.3,203 208.9,208.6 210,205.8 216.2,209.2 
									217.9,213.7 222.4,213.7 224.1,216.5 220.2,218.2 225.3,222.1 225.3,230.6 228.1,233.4 221.9,237.9 224.1,242.4 220.2,244.1 
									219.6,240.2 215.1,239.1 210.6,240.7 207.8,244.1 213.4,248.1 212.9,252.6 216.8,254.8 212.9,260.5 209.5,259.9 198.8,275.7 
									201.6,279.6 197.1,281.3 202.7,285.3 189.8,285.3 188.6,281.3 181.3,276.2 183,272.3 178.5,272.3 177.9,268.9 172.9,268.9 
									168.4,265 170.6,263.3 162.7,260.5 159.3,239.1 149.8,237.4 145.8,227.8 138.5,224.4 	"/>
								<text transform="matrix(1 0 0 1 162.9697 230.3535)" class="st1 st2">RANGPUR</text>
								<g>
									<path class="st10" d="M174.6,203.8c0-0.2,0-0.4,0-0.6c0,0,0-0.1,0-0.1c0.1-1.2,0.4-2.3,1-3.3c1.3-2.2,3.2-3.5,5.7-3.8
										c0.2,0,0.5-0.1,0.7-0.1c0.2,0,0.4,0,0.6,0c0,0,0.1,0,0.1,0c0.6,0,1.2,0.1,1.8,0.3c2.9,1,4.6,2.9,5.3,5.8c0.1,0.3,0.1,0.6,0.1,0.9
										c0,0.4,0,0.8,0,1.2c0,0.1,0,0.3-0.1,0.4c-0.1,0.9-0.4,1.8-0.8,2.6c-0.5,0.8-0.9,1.6-1.4,2.4c-1.7,2.8-3.5,5.5-5.2,8.3
										c0,0,0,0.1-0.1,0.1c0,0,0,0-0.1,0c0,0,0-0.1-0.1-0.1c-0.8-1.2-1.5-2.4-2.3-3.6c-1.5-2.3-2.9-4.6-4.3-7c-0.5-0.8-0.7-1.7-0.9-2.7
										C174.7,204.3,174.6,204,174.6,203.8z M182.3,206.9c1.8,0,3.4-1.5,3.4-3.4c0-1.9-1.5-3.4-3.4-3.4c-1.8,0-3.3,1.5-3.3,3.4
										C178.9,205.4,180.4,206.9,182.3,206.9z"/>
								</g>
							</g>
							</svg>